<svg width="146" height="41" viewBox="0 0 146 41" fill="none" xmlns="http://www.w3.org/2000/svg">
<path fill-rule="evenodd" clip-rule="evenodd" d="M55.1472 35.3438H52.164L50.5298 30.0476H44.8498L43.2931 35.3438H40.3887L46.0162 17.3135H49.4921L55.1472 35.3438ZM50.0372 27.8258H45.3437L46.7952 23.1176C47.1762 21.6205 47.4533 20.4879 47.6255 19.721H47.6779C48.1102 21.504 48.4031 22.6366 48.5593 23.1176L50.0372 27.8258ZM69.6193 28.6834C69.6193 30.8944 69.04 32.6421 67.8814 33.9251C66.8436 35.0674 65.5549 35.6378 64.0168 35.6378C62.3563 35.6378 61.1635 35.0226 60.4371 33.7924H60.3846V40.6411H57.584V26.6226C57.584 25.2325 57.5484 23.8059 57.4802 22.3426H59.9432L60.0995 24.4034H60.1521C61.0861 22.8508 62.5034 22.0758 64.4055 22.0758C65.8926 22.0758 67.134 22.6814 68.127 23.894C69.1228 25.1079 69.6193 26.7039 69.6193 28.6834ZM66.7661 28.789C66.7661 27.5236 66.4903 26.4804 65.9358 25.6594C65.3303 24.803 64.5173 24.3749 63.4979 24.3749C62.8068 24.3749 62.1789 24.6134 61.618 25.0835C61.0558 25.5578 60.688 26.1769 60.5159 26.9438C60.4292 27.3014 60.3859 27.594 60.3859 27.8244V29.9921C60.3859 30.9378 60.667 31.7358 61.2293 32.3875C61.7914 33.0391 62.5218 33.3643 63.4203 33.3643C64.4751 33.3643 65.2962 32.9443 65.8834 32.107C66.4719 31.2684 66.7661 30.1628 66.7661 28.789ZM84.1177 28.6834C84.1177 30.8944 83.5383 32.6421 82.3785 33.9251C81.3419 35.0674 80.0533 35.6378 78.5151 35.6378C76.8547 35.6378 75.662 35.0226 74.9369 33.7924H74.8843V40.6411H72.0836V26.6226C72.0836 25.2325 72.0482 23.8059 71.9799 22.3426H74.4428L74.5992 24.4034H74.6518C75.5844 22.8508 77.0018 22.0758 78.9052 22.0758C80.3909 22.0758 81.6323 22.6814 82.628 23.894C83.6198 25.1079 84.1177 26.7039 84.1177 28.6834ZM81.2645 28.789C81.2645 27.5236 80.9873 26.4804 80.433 25.6594C79.8274 24.803 79.0169 24.3749 77.9962 24.3749C77.3039 24.3749 76.6774 24.6134 76.1151 25.0835C75.5528 25.5578 75.1864 26.1769 75.0143 26.9438C74.9289 27.3014 74.8843 27.594 74.8843 27.8244V29.9921C74.8843 30.9378 75.1654 31.7358 75.725 32.3875C76.2872 33.0378 77.0175 33.3643 77.9187 33.3643C78.9735 33.3643 79.7946 32.9443 80.3817 32.107C80.9702 31.2684 81.2645 30.1628 81.2645 28.789ZM100.328 30.2875C100.328 31.8211 99.8114 33.0689 98.775 34.0323C97.636 35.0849 96.0505 35.6106 94.0131 35.6106C92.132 35.6106 90.624 35.2366 89.4825 34.4875L90.1314 32.0799C91.361 32.8468 92.71 33.2315 94.1799 33.2315C95.2348 33.2315 96.0557 32.9849 96.6456 32.4945C97.2329 32.004 97.5258 31.3456 97.5258 30.5245C97.5258 29.7929 97.2841 29.1765 96.7993 28.6765C96.3172 28.1766 95.512 27.7119 94.3875 27.2824C91.3268 26.105 89.7977 24.3804 89.7977 22.1124C89.7977 20.6301 90.3338 19.4149 91.407 18.4691C92.4762 17.5221 93.9027 17.0494 95.6867 17.0494C97.2775 17.0494 98.599 17.3351 99.6538 17.9056L98.9536 20.2603C97.9684 19.7075 96.8545 19.4311 95.6078 19.4311C94.6226 19.4311 93.8529 19.6818 93.3012 20.1804C92.8348 20.6261 92.601 21.1694 92.601 21.8129C92.601 22.5256 92.8677 23.1149 93.4036 23.5783C93.8699 24.0064 94.7172 24.4698 95.9467 24.9698C97.4508 25.5943 98.5556 26.3245 99.2663 27.1619C99.9743 27.9964 100.328 29.041 100.328 30.2875ZM109.587 24.5104H106.5V30.8226C106.5 32.4281 107.044 33.2301 108.134 33.2301C108.635 33.2301 109.05 33.1855 109.379 33.096L109.456 35.2895C108.904 35.5023 108.178 35.6093 107.278 35.6093C106.172 35.6093 105.308 35.261 104.684 34.566C104.062 33.8696 103.75 32.7018 103.75 31.061V24.5078H101.911V22.34H103.75V19.9595L106.5 19.1033V22.34H109.587V24.5104ZM123.516 28.7361C123.516 30.7345 122.961 32.3753 121.855 33.6583C120.696 34.9793 119.156 35.6378 117.237 35.6378C115.387 35.6378 113.915 35.005 112.816 33.7396C111.718 32.4741 111.169 30.8768 111.169 28.9516C111.169 26.9369 111.733 25.2868 112.867 24.0038C113.998 22.7194 115.525 22.0771 117.444 22.0771C119.294 22.0771 120.781 22.7099 121.905 23.9766C122.98 25.2055 123.516 26.792 123.516 28.7361ZM120.61 28.8296C120.61 27.6306 120.361 26.6023 119.858 25.7446C119.271 24.7069 118.432 24.1894 117.344 24.1894C116.219 24.1894 115.364 24.7083 114.776 25.7446C114.273 26.6036 114.025 27.6483 114.025 28.8839C114.025 30.0829 114.273 31.1111 114.776 31.9675C115.381 33.0053 116.228 33.5228 117.319 33.5228C118.389 33.5228 119.228 32.9944 119.833 31.9404C120.35 31.0665 120.61 30.0274 120.61 28.8296ZM132.618 24.883C132.341 24.8301 132.047 24.803 131.736 24.803C130.752 24.803 129.99 25.1865 129.453 25.9546C128.987 26.6321 128.753 27.4884 128.753 28.5221V35.3438H125.954L125.98 26.437C125.98 24.9385 125.944 23.5743 125.875 22.344H128.314L128.416 24.8315H128.495C128.79 23.9766 129.256 23.2884 129.894 22.7721C130.518 22.3075 131.193 22.0758 131.919 22.0758C132.177 22.0758 132.412 22.0948 132.618 22.1286V24.883ZM145.144 28.2281C145.144 28.7456 145.112 29.1819 145.042 29.5383H136.64C136.673 30.8226 137.079 31.8049 137.859 32.4823C138.567 33.0879 139.483 33.3914 140.607 33.3914C141.852 33.3914 142.986 33.1868 144.007 32.7763L144.445 34.7815C143.252 35.318 141.844 35.5849 140.22 35.5849C138.265 35.5849 136.731 34.9915 135.614 33.806C134.5 32.6205 133.942 31.0285 133.942 29.0315C133.942 27.071 134.46 25.4385 135.499 24.1365C136.587 22.7464 138.057 22.0514 139.906 22.0514C141.724 22.0514 143.099 22.7464 144.033 24.1365C144.772 25.2406 145.144 26.6064 145.144 28.2281ZM142.474 27.4789C142.492 26.6226 142.309 25.8829 141.93 25.2583C141.445 24.4549 140.701 24.0539 139.698 24.0539C138.783 24.0539 138.037 24.4454 137.469 25.2313C137.002 25.8558 136.725 26.605 136.64 27.4775H142.474V27.4789Z" fill="white"/>
<path fill-rule="evenodd" clip-rule="evenodd" d="M49.1102 6.22225C49.1102 7.81687 48.6465 9.01725 47.7203 9.82337C46.8626 10.5671 45.6435 10.9397 44.0646 10.9397C43.2817 10.9397 42.6117 10.9045 42.0508 10.8341V2.12111C42.7825 1.99917 43.5707 1.93684 44.4219 1.93684C45.926 1.93684 47.0596 2.2742 47.8241 2.94891C48.6807 3.71168 49.1102 4.80237 49.1102 6.22225ZM47.6587 6.2615C47.6587 5.22775 47.3933 4.43512 46.8626 3.8824C46.3319 3.33097 45.5569 3.05458 44.5361 3.05458C44.1026 3.05458 43.7335 3.0844 43.4275 3.14672V9.7705C43.5969 9.79762 43.907 9.80987 44.3575 9.80987C45.4111 9.80987 46.2242 9.50762 46.7969 8.90337C47.3696 8.29912 47.6587 7.4185 47.6587 6.2615ZM56.8066 7.615C56.8066 8.59725 56.5348 9.402 55.9909 10.0334C55.4208 10.6824 54.6654 11.0061 53.7223 11.0061C52.8133 11.0061 52.0895 10.6959 51.5496 10.0726C51.011 9.45075 50.7417 8.66637 50.7417 7.72062C50.7417 6.73162 51.0189 5.92012 51.5758 5.29012C52.1328 4.66012 52.8815 4.34437 53.8247 4.34437C54.7338 4.34437 55.4642 4.65462 56.0171 5.2765C56.5426 5.88075 56.8066 6.66112 56.8066 7.615ZM55.3788 7.661C55.3788 7.07162 55.2553 6.56637 55.0097 6.145C54.7206 5.6355 54.3095 5.38087 53.7748 5.38087C53.2218 5.38087 52.8015 5.6355 52.5124 6.145C52.2655 6.56637 52.1433 7.07987 52.1433 7.68675C52.1433 8.27612 52.2668 8.7815 52.5124 9.20287C52.8107 9.71225 53.2257 9.967 53.7617 9.967C54.2871 9.967 54.6996 9.70825 54.9965 9.18925C55.2513 8.75987 55.3788 8.25037 55.3788 7.661ZM67.1264 4.47449L65.1888 10.8611H63.9278L63.1252 8.08787C62.9216 7.3955 62.756 6.70725 62.6273 6.02437H62.6023C62.4827 6.72625 62.3173 7.41312 62.1044 8.08787L61.2519 10.8611H59.9764L58.1545 4.47449H59.5692L60.2693 7.51062C60.4389 8.22875 60.5781 8.91287 60.6897 9.5605H60.7146C60.8172 9.02675 60.9866 8.34662 61.2257 7.52425L62.1044 4.47587H63.2263L64.0684 7.45912C64.272 8.18675 64.4375 8.88712 64.5649 9.56187H64.6029C64.6963 8.90475 64.8368 8.20437 65.0233 7.45912L65.7747 4.47587H67.1264V4.47449ZM74.2633 10.8611H72.8866V7.20312C72.8866 6.07587 72.4716 5.51225 71.6387 5.51225C71.2302 5.51225 70.9005 5.66675 70.6443 5.977C70.3908 6.28725 70.262 6.653 70.262 7.07162V10.8599H68.8853V6.29937C68.8853 5.7385 68.8683 5.13025 68.8355 4.47175H70.0453L70.1097 5.47025H70.1477C70.308 5.16 70.547 4.904 70.8611 4.69937C71.2341 4.46087 71.6518 4.34037 72.1089 4.34037C72.687 4.34037 73.1677 4.53275 73.55 4.91887C74.0255 5.39162 74.2633 6.0975 74.2633 7.03512V10.8611ZM76.6842 1.54395H78.0596V10.8611H76.6842V1.54395ZM86.1646 7.615C86.1646 8.59725 85.8927 9.402 85.3489 10.0334C84.7787 10.6824 84.0222 11.0061 83.0802 11.0061C82.17 11.0061 81.4461 10.6959 80.9076 10.0726C80.3689 9.45075 80.0997 8.66637 80.0997 7.72062C80.0997 6.73162 80.3769 5.92012 80.9338 5.29012C81.4909 4.66012 82.2396 4.34437 83.1814 4.34437C84.0918 4.34437 84.8209 4.65462 85.3752 5.2765C85.9007 5.88075 86.1646 6.66112 86.1646 7.615ZM84.7355 7.661C84.7355 7.07162 84.6119 6.56637 84.3663 6.145C84.0786 5.6355 83.6661 5.38087 83.1328 5.38087C82.5785 5.38087 82.1582 5.6355 81.8704 6.145C81.6235 6.56637 81.5013 7.07987 81.5013 7.68675C81.5013 8.27612 81.6249 8.7815 81.8704 9.20287C82.1686 9.71225 82.5837 9.967 83.1196 9.967C83.6451 9.967 84.0562 9.70825 84.3532 9.18925C84.6093 8.75987 84.7355 8.25037 84.7355 7.661ZM92.8273 10.8611H91.5912L91.4888 10.1255H91.4506C91.0277 10.7121 90.4248 11.0061 89.6418 11.0061C89.0573 11.0061 88.5844 10.8124 88.2284 10.4276C87.9051 10.0781 87.7436 9.64312 87.7436 9.127C87.7436 8.34662 88.0589 7.75187 88.6934 7.34C89.3265 6.92812 90.2172 6.72625 91.364 6.73562V6.6165C91.364 5.77512 90.9357 5.35512 90.0779 5.35512C89.467 5.35512 88.9285 5.51362 88.4634 5.828L88.1837 4.89587C88.7591 4.52862 89.4698 4.34437 90.3078 4.34437C91.9261 4.34437 92.738 5.225 92.738 6.98637V9.33837C92.738 9.9765 92.7682 10.4845 92.8273 10.8611ZM91.3981 8.66637V7.68137C89.8795 7.65425 89.1203 8.08375 89.1203 8.9685C89.1203 9.30175 89.207 9.551 89.3844 9.71762C89.5616 9.88437 89.7876 9.967 90.0569 9.967C90.359 9.967 90.6414 9.86812 90.8989 9.67162C91.1577 9.47387 91.3166 9.22312 91.3758 8.91562C91.3902 8.8465 91.3981 8.7625 91.3981 8.66637ZM100.65 10.8611H99.4283L99.3639 9.8355H99.3257C98.9356 10.616 98.2709 11.0061 97.3369 11.0061C96.5908 11.0061 95.9695 10.704 95.4769 10.0997C94.9843 9.4955 94.7386 8.711 94.7386 7.74775C94.7386 6.714 95.0053 5.87675 95.5412 5.23725C96.0601 4.64112 96.6959 4.343 97.4525 4.343C98.2841 4.343 98.866 4.63162 99.197 5.21012H99.2233V1.54395H100.601V9.1405C100.601 9.76237 100.617 10.3355 100.65 10.8611ZM99.2233 8.16775V7.10287C99.2233 6.91862 99.2102 6.7695 99.1852 6.65575C99.1077 6.31437 98.9408 6.02712 98.6873 5.79537C98.4311 5.56375 98.1225 5.44725 97.7665 5.44725C97.2529 5.44725 96.851 5.65725 96.5553 6.07862C96.2625 6.5 96.114 7.03787 96.114 7.69487C96.114 8.32625 96.2545 8.83837 96.537 9.23262C96.8352 9.65262 97.2371 9.86262 97.7402 9.86262C98.1921 9.86262 98.5533 9.68787 98.8279 9.337C99.0932 9.01312 99.2233 8.623 99.2233 8.16775ZM112.424 7.615C112.424 8.59725 112.152 9.402 111.608 10.0334C111.038 10.6824 110.284 11.0061 109.339 11.0061C108.432 11.0061 107.708 10.6959 107.167 10.0726C106.628 9.45075 106.359 8.66637 106.359 7.72062C106.359 6.73162 106.636 5.92012 107.193 5.29012C107.75 4.66012 108.499 4.34437 109.443 4.34437C110.351 4.34437 111.083 4.65462 111.635 5.2765C112.16 5.88075 112.424 6.66112 112.424 7.615ZM110.997 7.661C110.997 7.07162 110.874 6.56637 110.628 6.145C110.338 5.6355 109.928 5.38087 109.392 5.38087C108.84 5.38087 108.42 5.6355 108.13 6.145C107.883 6.56637 107.761 7.07987 107.761 7.68675C107.761 8.27612 107.884 8.7815 108.13 9.20287C108.428 9.71225 108.843 9.967 109.379 9.967C109.904 9.967 110.318 9.70825 110.615 9.18925C110.869 8.75987 110.997 8.25037 110.997 7.661ZM119.826 10.8611H118.45V7.20312C118.45 6.07587 118.035 5.51225 117.201 5.51225C116.792 5.51225 116.463 5.66675 116.208 5.977C115.953 6.28725 115.827 6.653 115.827 7.07162V10.8599H114.448V6.29937C114.448 5.7385 114.432 5.13025 114.4 4.47175H115.608L115.673 5.47025H115.711C115.873 5.16 116.111 4.904 116.423 4.69937C116.799 4.46087 117.215 4.34037 117.674 4.34037C118.25 4.34037 118.73 4.53275 119.113 4.91887C119.59 5.39162 119.826 6.0975 119.826 7.03512V10.8611ZM129.09 5.538H127.575V8.64062C127.575 9.42912 127.844 9.82337 128.378 9.82337C128.624 9.82337 128.829 9.80162 128.991 9.757L129.027 10.8341C128.755 10.9397 128.397 10.9926 127.957 10.9926C127.414 10.9926 126.99 10.8219 126.684 10.4805C126.377 10.139 126.224 9.56462 126.224 8.7585V5.538H125.32V4.47449H126.224V3.30387L127.574 2.88387V4.47312H129.089L129.09 5.538ZM136.379 10.8611H135.001V7.23025C135.001 6.08537 134.586 5.51225 133.755 5.51225C133.116 5.51225 132.68 5.84425 132.441 6.50812C132.4 6.64762 132.377 6.81837 132.377 7.01887V10.8599H131.001V1.54395H132.377V5.393H132.403C132.836 4.69262 133.458 4.343 134.263 4.343C134.832 4.343 135.305 4.53537 135.679 4.9215C136.145 5.4025 136.379 6.11787 136.379 7.0635V10.8611ZM143.897 7.36562C143.897 7.62037 143.878 7.8345 143.846 8.00925H139.717C139.736 8.64062 139.932 9.1215 140.315 9.45487C140.664 9.75287 141.115 9.902 141.666 9.902C142.277 9.902 142.834 9.80162 143.336 9.59987L143.551 10.5861C142.964 10.849 142.273 10.9804 141.473 10.9804C140.515 10.9804 139.759 10.6891 139.212 10.1065C138.663 9.524 138.392 8.74225 138.392 7.76125C138.392 6.798 138.646 5.996 139.156 5.3565C139.69 4.67362 140.41 4.33225 141.32 4.33225C142.211 4.33225 142.887 4.67362 143.345 5.3565C143.714 5.89837 143.897 6.569 143.897 7.36562ZM142.583 6.9985C142.594 6.57712 142.503 6.21412 142.317 5.90787C142.077 5.51362 141.714 5.31587 141.221 5.31587C140.772 5.31587 140.405 5.50825 140.126 5.89437C139.897 6.20187 139.762 6.569 139.717 6.9985H142.583Z" fill="white"/>
<path fill-rule="evenodd" clip-rule="evenodd" d="M23.8814 20.0271C23.9252 25.3025 28.3581 27.0464 28.4124 27.0655C28.3859 27.1884 27.7183 29.5822 26.0556 32.0131C24.6672 34.153 23.2124 36.2451 20.9019 36.2834C18.6577 36.3366 17.9025 34.9218 15.3283 34.9218C12.7304 34.9218 11.9261 36.2451 9.77339 36.3366C7.57278 36.4199 5.89157 34.0519 4.45284 31.9311C1.57662 27.6007 -0.662387 19.7281 2.33973 14.3709C3.79437 11.7434 6.44663 10.0514 9.28184 10.0064C11.485 9.95988 13.5292 11.5399 14.8833 11.5399C16.2106 11.5399 18.7385 9.64988 21.3444 9.93263C22.4347 9.96538 25.5375 10.3764 27.5394 13.3849C27.3777 13.4845 23.843 15.6259 23.8814 20.0271ZM19.642 7.084C18.4337 8.55338 16.5008 9.67725 14.6183 9.5325C14.3718 7.54962 15.3257 5.44113 16.3936 4.15475C17.6004 2.6949 19.6964 1.57647 21.3722 1.5C21.5922 3.5607 20.7999 5.59138 19.642 7.084Z" stroke="white"/>
</svg>
