<svg width="150" height="43" viewBox="0 0 150 43" fill="none" xmlns="http://www.w3.org/2000/svg">
<path fill-rule="evenodd" clip-rule="evenodd" d="M2.23522 14.9473C1.74491 15.1028 1.42773 15.6061 1.42773 16.3675L1.43072 40.3333C1.43072 41.0864 1.7382 41.582 2.21484 41.7475L15.4367 28.3366L2.23522 14.9473Z" stroke="white" stroke-linejoin="round"/>
<path fill-rule="evenodd" clip-rule="evenodd" d="M2.21484 41.7467C2.55775 41.8647 2.98753 41.8096 3.45584 41.5491L19.5911 32.5494L15.4367 28.336L2.21484 41.7467Z" stroke="white" stroke-linejoin="round"/>
<path fill-rule="evenodd" clip-rule="evenodd" d="M19.594 32.5499L25.0957 29.4817C26.2115 28.8574 26.2115 27.8416 25.0957 27.2187L19.5736 24.1391L15.4375 28.3341L19.594 32.5499Z" stroke="white" stroke-linejoin="round"/>
<path fill-rule="evenodd" clip-rule="evenodd" d="M19.5724 24.1396L3.45619 15.152C2.99919 14.8985 2.57774 14.8395 2.23633 14.9475L15.4371 28.3346L19.5724 24.1396Z" stroke="white" stroke-linejoin="round"/>
<path fill-rule="evenodd" clip-rule="evenodd" d="M48.4501 34.1985L45.0331 34.9921C43.6486 35.2135 42.4053 35.4081 41.0888 35.4081C34.4978 35.4081 31.9863 30.4876 31.9863 26.6366C31.9863 21.9338 35.5446 17.5733 41.6386 17.5733C42.9279 17.5733 44.1682 17.7655 45.2982 18.078C47.089 18.5883 47.9267 19.2173 48.4501 19.5856L46.4651 21.4978L45.6282 21.6878L46.225 20.7233C45.4168 19.9228 43.9311 18.445 41.1114 18.445C37.3416 18.445 34.4978 21.3515 34.4978 25.5948C34.4978 30.1521 37.7449 34.439 42.9529 34.439C44.4831 34.439 45.271 34.1273 45.9862 33.8361V29.9291L42.3781 30.126L44.2906 29.0843H49.3543L48.7348 29.6886C48.5679 29.8326 48.5453 29.8816 48.4984 30.0748C48.4736 30.2954 48.4501 30.9971 48.4501 31.2438V34.1985ZM56.2865 35.0955C52.2343 35.0955 50.0703 31.8956 50.0703 28.9984C50.0703 25.6131 52.7962 22.7166 56.6711 22.7166C60.4159 22.7166 62.7605 25.692 62.7605 28.8161C62.7605 31.8674 60.4439 35.0955 56.2865 35.0955ZM59.4748 33.0041C60.0866 32.1769 60.2392 31.1441 60.2392 30.1375C60.2392 27.8608 59.1666 23.5188 56.0086 23.5188C55.165 23.5188 54.3273 23.8519 53.7154 24.3959C52.7184 25.3006 52.5417 26.4374 52.5417 27.5529C52.5417 30.1069 53.7918 34.3195 56.8758 34.3195C57.8706 34.3195 58.8865 33.83 59.4748 33.0041ZM69.8515 35.0955C65.7999 35.0955 63.6321 31.8956 63.6321 28.9984C63.6321 25.6131 66.3573 22.7166 70.2336 22.7166C73.9809 22.7166 76.3276 25.692 76.3276 28.8161C76.3276 31.8674 74.0079 35.0955 69.8515 35.0955ZM73.0389 33.0041C73.6552 32.1769 73.8049 31.1441 73.8049 30.1375C73.8049 27.8608 72.7353 23.5188 69.5743 23.5188C68.7336 23.5188 67.8869 23.8519 67.2765 24.3959C66.2811 25.3006 66.1035 26.4374 66.1035 27.5529C66.1035 30.1069 67.3483 34.3195 70.4376 34.3195C71.4346 34.3195 72.452 33.83 73.0389 33.0041ZM85.6544 23.9853C86.2398 24.4733 87.4611 25.509 87.4611 27.4731C87.4611 29.3875 86.3969 30.29 85.3235 31.1441C84.9942 31.4805 84.609 31.8451 84.609 32.4089C84.609 32.9813 84.9942 33.2915 85.2713 33.5228L86.1922 34.2436C87.3115 35.202 88.332 36.0808 88.332 37.8656C88.332 40.2971 86.0116 42.7494 81.6269 42.7494C77.9334 42.7494 76.1479 40.9651 76.1479 39.0523C76.1479 38.1215 76.6048 36.8031 78.1125 35.8999C79.6925 34.9201 81.8331 34.7891 82.9798 34.7125C82.6217 34.2436 82.213 33.7526 82.213 32.9513C82.213 32.5131 82.343 32.2519 82.4683 31.9439C82.1897 31.9708 81.9087 31.9984 81.6534 31.9984C78.95 31.9984 77.4221 29.9529 77.4221 27.9374C77.4221 26.7485 77.9569 25.4293 79.0551 24.4733C80.5083 23.2598 82.241 23.0506 83.618 23.0506H88.8705L87.2375 23.9853H85.6544ZM83.8484 35.4618C83.6391 35.4341 83.5138 35.4341 83.2615 35.4341C83.0303 35.4341 81.6534 35.4848 80.5869 35.8479C80.0226 36.057 78.3919 36.6751 78.3919 38.5115C78.3919 40.3439 80.1525 41.6654 82.8762 41.6654C85.3235 41.6654 86.6227 40.4756 86.6227 38.8738C86.6227 37.5554 85.782 36.8598 83.8484 35.4618ZM84.5811 30.5496C85.1702 29.9529 85.2215 29.1286 85.2215 28.6605C85.2215 26.8013 84.1285 23.9055 82.01 23.9055C81.349 23.9055 80.633 24.2419 80.2266 24.762C79.7953 25.3006 79.6662 25.9993 79.6662 26.6711C79.6662 28.4024 80.6617 31.2736 82.8514 31.2736C83.4903 31.2736 84.1776 30.9588 84.5811 30.5496ZM92.6207 32.8256C92.6207 33.83 92.7975 33.9863 93.635 34.0651C94.0716 34.1173 94.5068 34.1403 94.9373 34.1924L93.9946 34.7615H89.5028C90.0919 33.9863 90.1931 33.9089 90.1931 33.3926V32.8158L90.1832 17.4453H88.1998L90.1093 16.5123H93.7545C92.9644 16.9765 92.728 17.2591 92.6267 18.1639L92.6207 32.8256ZM105.149 33.0256L103.93 34.1924C103.648 34.3494 103.368 34.5318 103.089 34.6611C102.242 35.0511 101.381 35.1491 100.616 35.1491C99.8016 35.1491 98.525 35.0955 97.2229 34.1403C95.4139 32.8479 94.6231 30.6263 94.6231 28.6904C94.6231 24.6824 97.84 22.7166 100.464 22.7166C101.381 22.7166 102.323 22.9495 103.089 23.4405C104.362 24.2948 104.691 25.4048 104.874 25.9993L98.8824 28.4545L96.92 28.6093C97.5552 31.8956 99.7472 33.807 102.169 33.807C103.38 33.807 104.278 33.4064 105.102 32.9935C105.102 32.9935 105.267 32.9061 105.149 33.0256ZM101.534 26.4888C102.021 26.3095 102.274 26.1548 102.274 25.7946C102.274 24.762 101.122 23.5693 99.7471 23.5693C98.729 23.5693 96.8172 24.3736 96.8172 27.1668C96.8172 27.6026 96.8687 28.0669 96.8943 28.5311L101.534 26.4888ZM112.496 33.136V39.7203H111.207V22.9656H112.496V24.8739C113.336 23.6405 114.871 22.663 116.653 22.663C119.851 22.663 122.005 25.1229 122.005 29.0168C122.005 32.8846 119.851 35.3959 116.653 35.3959C114.97 35.3959 113.463 34.5156 112.496 33.136ZM120.619 29.0168C120.619 26.082 119.11 23.8435 116.435 23.8435C114.775 23.8435 113.187 25.1673 112.496 26.3218V31.685C113.187 32.8418 114.775 34.2138 116.435 34.2138C119.11 34.2138 120.619 31.9563 120.619 29.0168ZM123.765 18.3393H125.053V35.094H123.765V18.3393ZM135.754 35.058C135.669 34.6374 135.604 34.2666 135.557 33.9571C135.517 33.6485 135.495 33.3329 135.495 33.0119C135.052 33.6699 134.426 34.2176 133.627 34.6489C132.826 35.0833 132.066 35.2963 131.022 35.2963C129.766 35.2963 128.791 34.9829 128.095 34.3471C127.401 33.712 127.053 32.8518 127.053 31.7631C127.053 30.6761 127.558 29.7936 128.566 29.1186C129.574 28.4408 130.875 28.1036 132.487 28.1036H135.495V26.5968C135.495 25.7288 135.203 25.0463 134.621 24.5514C134.036 24.0558 133.215 23.8053 132.153 23.8053C131.179 23.8053 130.392 24.0343 129.791 24.4801C129.196 24.9351 128.896 25.499 128.896 26.1785H127.576L127.549 26.1134C127.502 25.1971 127.915 24.3935 128.793 23.6995C129.668 23.0061 130.814 22.6576 132.224 22.6576C133.629 22.6576 134.766 23.0009 135.624 23.6858C136.48 24.3636 136.91 25.3435 136.91 26.6244V32.6074C136.91 33.0371 136.931 33.4524 136.984 33.8568C137.038 34.262 137.125 34.6665 137.241 35.058H135.754ZM131.18 34.105C132.276 34.105 133.062 33.8568 133.867 33.3658C134.666 32.8778 135.21 32.2411 135.495 31.4705V29.1416H132.473C131.319 29.1416 130.363 29.4006 129.612 29.923C128.859 30.444 128.478 31.0745 128.478 31.8076C128.478 32.4994 128.719 33.0524 129.2 33.4715C129.682 33.8951 130.341 34.105 131.18 34.105ZM139.522 38.6371C139.796 38.762 140.267 38.8386 140.566 38.8386C141.355 38.8386 141.903 38.5115 142.396 37.3563L143.337 35.1951L138.258 22.9656H139.697L144.053 33.5634L148.367 22.9656H149.826L143.632 37.7615C142.989 39.286 141.977 40.0191 140.588 40.0191C140.172 40.0191 139.621 39.944 139.299 39.8436L139.522 38.6371Z" fill="white"/>
<path fill-rule="evenodd" clip-rule="evenodd" d="M31.8906 4.5255C31.8906 1.92367 33.8126 0.25 36.2032 0.25C37.805 0.25 38.8519 1.01871 39.5054 1.96006L38.3346 2.64208C37.8913 2.022 37.1146 1.53971 36.2032 1.53971C34.5777 1.53971 33.3691 2.77832 33.3691 4.5255C33.3691 6.24725 34.5777 7.51138 36.2032 7.51138C37.0415 7.51138 37.7804 7.12737 38.1499 6.76825V5.49163H35.6861V4.21513H39.5792V7.30088C38.7787 8.20575 37.6203 8.81275 36.2032 8.81275C33.8126 8.81275 31.8906 7.11575 31.8906 4.5255ZM41.3618 8.65162V0.38625H46.9923V1.66358H42.8028V3.79399H46.9061V5.0705H42.8028V7.37512H46.9923V8.65162H41.3618ZM50.9809 8.65162V1.66358H48.4925V0.38625H54.9111V1.66358H52.4226V8.65162H50.9809ZM59.9212 0.38625H61.362V8.65162H59.9212V0.38625ZM65.3768 8.65162V1.66358H62.8884V0.38625H69.307V1.66358H66.8185V8.65162H65.3768ZM73.9598 4.5255C73.9598 2.05915 75.6964 0.25 78.1617 0.25C80.6125 0.25 82.3628 2.05915 82.3628 4.5255C82.3628 6.99112 80.6125 8.80037 78.1617 8.80037C75.6964 8.80037 73.9598 6.99112 73.9598 4.5255ZM80.8842 4.5255C80.8842 2.81549 79.812 1.53971 78.1617 1.53971C76.4976 1.53971 75.4385 2.81549 75.4385 4.5255C75.4385 6.2225 76.4976 7.51138 78.1617 7.51138C79.812 7.51138 80.8842 6.2225 80.8842 4.5255ZM89.7751 8.65162L85.4871 2.74116V8.65162H84.0461V0.38625H85.5248L89.7259 6.11175V0.38625H91.1676V8.65162H89.7751Z" fill="white"/>
</svg>
