<svg width="40" height="40" viewBox="0 0 40 40" fill="none" xmlns="http://www.w3.org/2000/svg">
<g clip-path="url(#clip0_2557_53751)">
<path d="M3.08569 3.08549C7.19967 -1.0285 13.8927 -1.0285 18.0068 3.08549L24.1372 9.21588C25.2069 10.2856 26.0737 11.6505 26.6324 13.3168C26.6418 13.3199 26.6508 13.3247 26.6602 13.3278C27.9308 17.1503 26.9672 21.3069 24.1372 24.1369C23.2916 24.9824 22.2968 25.6787 21.2193 26.1927L20.8214 25.7948C19.4453 24.4187 19.4453 22.1972 20.8214 20.821C23.1093 18.5331 23.1093 14.8194 20.8214 12.5316L14.691 6.40119C12.4031 4.1133 8.68944 4.1133 6.40155 6.40119C4.11366 8.68908 4.11366 12.4028 6.40155 14.6906L11.0564 19.3455C10.4357 21.2646 10.3042 23.2969 10.6046 25.2749C10.1144 24.9332 9.64264 24.5634 9.21616 24.1369L3.08577 18.0065C-1.0283 13.8925 -1.02829 7.19939 3.08569 3.08549Z" fill="#3EC964"/>
<path d="M15.8478 15.8474C16.6933 15.0019 17.688 14.3055 18.7822 13.8081L19.1636 14.1895C20.5396 15.5655 20.5397 17.7871 19.1636 19.1633C16.8757 21.4512 16.8757 25.1649 19.1636 27.4527C21.1001 29.3893 23.4628 31.7523 25.3092 33.5987C27.5971 35.8866 31.3108 35.8866 33.5987 33.5987C35.8865 31.3108 35.8865 27.5972 33.5987 25.3093L28.9286 20.6388C29.5493 18.7197 29.6807 16.6873 29.3803 14.7093C29.8706 15.0512 30.3423 15.4209 30.7689 15.8474L36.9145 21.9934C41.0285 26.1074 41.0285 32.8005 36.9145 36.9145C32.8005 41.0286 26.1075 41.0285 21.9934 36.9145L15.8478 30.7685C14.778 29.6987 13.9112 28.3339 13.3526 26.6676C13.3432 26.6644 13.3341 26.6597 13.3247 26.6565C12.0541 22.834 13.0178 18.6774 15.8478 15.8474Z" fill="#3EC964"/>
<path d="M5.90111 32.4263L7.559 30.7685C8.01721 30.3103 8.75877 30.3103 9.21689 30.7685C9.6751 31.2267 9.6751 31.9682 9.21689 32.4263L7.559 34.0842C7.1008 34.5424 6.35924 34.5424 5.90111 34.0842C5.44299 33.626 5.44299 32.8846 5.90111 32.4263Z" fill="#3EC964"/>
<path d="M30.7682 7.55794L32.4262 5.90005C32.8844 5.44185 33.626 5.44185 34.0841 5.90005C34.5423 6.35825 34.5423 7.09981 34.0841 7.55794L32.4262 9.21583C31.968 9.67403 31.2264 9.67403 30.7682 9.21583C30.31 8.75763 30.31 8.01606 30.7682 7.55794Z" fill="#3EC964"/>
<path d="M1.57132 23.7142L3.8364 23.107C4.46218 22.9395 5.10491 23.3102 5.27249 23.936C5.44015 24.5656 5.06507 25.2058 4.44351 25.3722L2.17843 25.9793C1.55265 26.1469 0.909912 25.7761 0.742334 25.1503C0.576475 24.5245 0.945615 23.8786 1.57132 23.7142Z" fill="#3EC964"/>
<path d="M35.542 14.6121L37.8071 14.0049C38.4328 13.8373 39.0756 14.2081 39.2432 14.8339C39.4109 15.4634 39.0358 16.1036 38.4142 16.27L36.1491 16.8772C35.5233 17.0448 34.8806 16.674 34.713 16.0482C34.5463 15.4216 34.9186 14.7755 35.542 14.6121Z" fill="#3EC964"/>
<path d="M14.0055 37.8064L14.6126 35.5413C14.781 34.9131 15.4229 34.5448 16.0487 34.7124C16.6745 34.8799 17.0453 35.5227 16.8777 36.1485L16.2705 38.4135C16.1041 39.0352 15.4639 39.4102 14.8344 39.2425C14.2086 39.0749 13.8379 38.4322 14.0055 37.8064Z" fill="#3EC964"/>
<path d="M23.107 3.83571L23.7142 1.57063C23.881 0.942425 24.5245 0.575706 25.1503 0.741644C25.7761 0.909222 26.1468 1.55196 25.9793 2.17774L25.3721 4.44282C25.3171 4.64844 25.2101 4.82657 25.0693 4.96743C24.7828 5.25399 24.3554 5.38352 23.9361 5.2718C23.3102 5.1043 22.9394 4.46149 23.107 3.83571Z" fill="#3EC964"/>
</g>
<defs>
<clipPath id="clip0_2557_53751">
<rect width="40" height="40" fill="white" transform="matrix(-1 0 0 1 40 0)"/>
</clipPath>
</defs>
</svg>
