<svg width="40" height="40" viewBox="0 0 40 40" fill="none" xmlns="http://www.w3.org/2000/svg">
<g clip-path="url(#clip0_2557_53785)">
<path d="M23.5088 33.6842H5.26316C2.36088 33.6842 0 31.3233 0 28.4211V5.26316C0 2.36088 2.36088 0 5.26316 0H27.0175C29.9198 0 32.2807 2.36088 32.2807 5.26316V15.0877C32.2807 15.6692 31.8096 16.1404 31.2281 16.1404C30.6466 16.1404 30.1754 15.6692 30.1754 15.0877V5.26316C30.1754 3.52179 28.7589 2.10526 27.0175 2.10526H5.26316C3.52179 2.10526 2.10526 3.52179 2.10526 5.26316V28.4211C2.10526 30.1624 3.52179 31.5789 5.26316 31.5789H23.5088C24.0903 31.5789 24.5614 32.0501 24.5614 32.6316C24.5614 33.2131 24.0903 33.6842 23.5088 33.6842Z" fill="#3EC964"/>
<path d="M27.017 13.2901C26.7477 13.2901 26.4784 13.1873 26.2728 12.9818C20.6632 7.37286 11.5366 7.37286 5.92773 12.9818C5.51654 13.3929 4.85043 13.3929 4.43925 12.9818C4.02807 12.5706 4.02806 11.9041 4.43925 11.4933C10.8695 5.06338 21.3317 5.06269 27.7613 11.4933C28.1725 11.9041 28.1725 12.5709 27.7613 12.9818C27.5557 13.1873 27.2864 13.2901 27.017 13.2901Z" fill="#3EC964"/>
<path d="M24.039 16.2674C23.7696 16.2674 23.5003 16.1647 23.2947 15.9591C19.3282 11.9922 12.8722 11.9922 8.9043 15.9591C8.49311 16.3702 7.82699 16.3702 7.41581 15.9591C7.00463 15.5482 7.00463 14.8814 7.41581 14.4706C12.2037 9.68233 19.9946 9.68233 24.7832 14.4706C25.1944 14.8814 25.1944 15.5482 24.7832 15.9591C24.5776 16.1647 24.3083 16.2674 24.039 16.2674Z" fill="#3EC964"/>
<path d="M21.0609 19.2448C20.7916 19.2448 20.5222 19.142 20.3166 18.9364C17.9907 16.6108 14.2068 16.6115 11.8809 18.9364C11.4697 19.3476 10.8036 19.3476 10.3924 18.9364C9.98119 18.5255 9.98119 17.8587 10.3924 17.4479C13.5386 14.3016 18.6589 14.301 21.8051 17.4479C22.2163 17.8587 22.2163 18.5255 21.8051 18.9364C21.5995 19.142 21.3302 19.2448 21.0609 19.2448Z" fill="#3EC964"/>
<path d="M16.0999 27.0137C13.9717 27.0137 12.2402 25.2823 12.2402 23.1541C12.2402 21.0259 13.9717 19.2944 16.0999 19.2944C18.2281 19.2944 19.9595 21.0259 19.9595 23.1541C19.9595 25.2823 18.2281 27.0137 16.0999 27.0137ZM16.0999 21.3997C15.1326 21.3997 14.3455 22.1868 14.3455 23.1541C14.3455 24.1214 15.1326 24.9085 16.0999 24.9085C17.0672 24.9085 17.8543 24.1214 17.8543 23.1541C17.8543 22.1868 17.0672 21.3997 16.0999 21.3997Z" fill="#3EC964"/>
<path d="M39.2251 20.3868L31.5058 18.2826C31.3163 18.2309 31.1159 18.2336 30.9281 18.2895L23.2088 20.5911C22.7627 20.724 22.457 21.1342 22.457 21.5998V32.2372C22.457 34.1646 23.508 35.9351 25.2 36.8579L30.7249 39.8715C30.8819 39.9572 31.0556 40 31.229 40C31.4023 40 31.5761 39.9572 31.733 39.8715L37.2579 36.8579C38.95 35.9351 40.0009 34.1646 40.0009 32.2372V21.4025C40.0009 20.9279 39.6833 20.5119 39.2251 20.3868ZM35.482 27.06L31.2715 31.2712C31.0676 31.4755 30.7979 31.5796 30.5269 31.5796C30.3059 31.5796 30.0838 31.5104 29.8957 31.3692L27.0887 29.264C26.6237 28.9152 26.5291 28.2552 26.8779 27.7902C27.2275 27.3252 27.8874 27.2317 28.3517 27.5795L30.4285 29.1372L33.9935 25.5715C34.404 25.1604 35.0708 25.1604 35.482 25.5715C35.8932 25.9824 35.8932 26.6488 35.482 27.06Z" fill="#3EC964"/>
</g>
<defs>
<clipPath id="clip0_2557_53785">
<rect width="40" height="40" fill="white"/>
</clipPath>
</defs>
</svg>
