<svg width="40" height="40" viewBox="0 0 40 40" fill="none" xmlns="http://www.w3.org/2000/svg">
<g clip-path="url(#clip0_2557_53732)">
<path d="M9.65625 22.0489L9.65633 22.0492C9.68109 22.0242 9.67945 22.0257 9.65625 22.0489Z" fill="#3EC964"/>
<path d="M39.1141 16.5203L37.1251 16.042C36.6926 14.1539 35.9477 12.3597 34.9064 10.6914L35.9145 8.99908C36.1891 8.53799 36.1147 7.94979 35.7359 7.57103L32.4324 4.26752C32.0537 3.88994 31.4667 3.81439 31.0044 4.089L29.312 5.09705C27.6438 4.0558 25.8495 3.31088 23.9615 2.87838L23.4832 0.889316C23.3527 0.368691 22.8848 0.00244141 22.347 0.00244141H17.6601C17.1223 0.00244141 16.6543 0.368613 16.5238 0.889316L16.0455 2.87838C14.1575 3.31088 12.3633 4.0558 10.695 5.09705L9.00266 4.089C8.54156 3.81432 7.95336 3.88877 7.57461 4.26752L4.27094 7.57096C3.89219 7.94971 3.81781 8.53783 4.09242 8.999L5.10047 10.6913C4.05922 12.3596 3.3143 14.1538 2.8818 16.0419L0.892734 16.5202C0.372109 16.6506 0.00585938 17.1186 0.00585938 17.6564V22.3433C0.00585938 22.8811 0.372031 23.3503 0.893828 23.4795L2.88289 23.9578C3.17125 25.2089 3.60523 26.4109 4.16258 27.5637C5.02313 26.6996 9.34516 22.3591 9.65578 22.0488C9.64047 21.9699 9.47305 20.4691 9.46859 20.1767C9.36891 14.2059 14.1782 9.45541 20.008 9.45541C25.8777 9.45541 30.5582 14.1884 30.5361 20.0364C30.5109 25.4448 26.4743 30.049 20.8365 30.4701C20.5926 30.4888 19.4899 30.6515 17.953 30.3485L12.4537 35.8478C13.6021 36.4018 14.7995 36.833 16.0455 37.1203L16.5238 39.1105C16.6542 39.6311 17.1222 39.9974 17.66 39.9974H22.3469C22.8847 39.9974 23.3527 39.6312 23.4831 39.1105L23.9614 37.1214C25.8495 36.6889 27.6437 35.944 29.312 34.9028L31.0043 35.9108C31.4631 36.1855 32.0524 36.1099 32.4323 35.7323L35.7359 32.4288C36.1146 32.05 36.189 31.4619 35.9144 31.0007L34.9063 29.3084C35.9487 27.6401 36.6925 25.8459 37.125 23.9567L39.1129 23.4795C39.6347 23.3503 40.0009 22.8811 40.0009 22.3433V17.6564C40.0009 17.1187 39.6348 16.6506 39.1141 16.5203Z" fill="#3EC964"/>
<path d="M27.9311 17.8578C27.8283 17.4544 27.5168 17.137 27.1151 17.027C26.7136 16.9169 26.2847 17.0316 25.9902 17.326L23.3164 20C22.4024 20.914 20.9166 20.914 20.0026 20C19.0894 19.0869 19.0894 17.5994 20.0026 16.6862L22.6776 14.0112C22.9719 13.7168 23.0856 13.2871 22.9755 12.8858C22.8654 12.4845 22.5484 12.1725 22.1451 12.07C17.2008 10.8135 12.7515 14.0341 11.9354 18.4815C11.6734 19.9462 11.7901 21.4051 12.2695 22.7484C11.6028 23.4152 1.30482 33.713 1.02802 33.99C-0.346273 35.3643 -0.346273 37.6002 1.04974 38.9962C2.43271 40.3071 4.55076 40.3623 6.0124 38.9744L17.254 27.7329C19.0542 28.3754 21.0619 28.3623 23.0267 27.6691C26.5669 26.4198 29.0447 22.2274 27.9311 17.8578Z" fill="#3EC964"/>
</g>
<defs>
<clipPath id="clip0_2557_53732">
<rect width="40" height="40" fill="white"/>
</clipPath>
</defs>
</svg>
