<svg width="40" height="38" viewBox="0 0 40 38" fill="none" xmlns="http://www.w3.org/2000/svg">
<path d="M39.3268 25.8274C38.8786 25.3788 38.3333 25.1543 37.6926 25.1543H26.5384L23.2692 28.4234C22.3397 29.3207 21.25 29.7695 20 29.7695C18.7503 29.7695 17.6603 29.3213 16.7308 28.4234L13.4856 25.1543H2.30766C1.66676 25.1543 1.12192 25.379 0.673068 25.8274C0.2243 26.276 0 26.8209 0 27.4622V35.1543C0 35.7953 0.2243 36.3402 0.673068 36.7889C1.12184 37.2375 1.66667 37.4616 2.30766 37.4616H37.6927C38.3334 37.4616 38.8787 37.2375 39.3269 36.7889C39.7759 36.3402 40 35.7953 40 35.1543V27.4622C40 26.8209 39.7759 26.276 39.3268 25.8274ZM30.3129 33.9283C30.008 34.2328 29.6473 34.385 29.2307 34.385C28.814 34.385 28.4538 34.2328 28.149 33.9283C27.8447 33.6237 27.6925 33.2633 27.6925 32.8468C27.6925 32.4302 27.8447 32.0692 28.149 31.7652C28.4538 31.4604 28.814 31.3079 29.2307 31.3079C29.6473 31.3079 30.008 31.4604 30.3129 31.7652C30.6171 32.0691 30.7693 32.4302 30.7693 32.8468C30.7693 33.2632 30.6171 33.6237 30.3129 33.9283ZM36.4663 33.9283C36.1621 34.2328 35.8014 34.385 35.3846 34.385C34.968 34.385 34.6075 34.2328 34.3029 33.9283C33.9987 33.6237 33.8466 33.2633 33.8466 32.8468C33.8466 32.4302 33.9987 32.0692 34.3029 31.7652C34.6075 31.4604 34.9679 31.3079 35.3846 31.3079C35.8013 31.3079 36.162 31.4604 36.4663 31.7652C36.7709 32.0691 36.9233 32.4302 36.9233 32.8468C36.9233 33.2632 36.7711 33.6237 36.4663 33.9283Z" fill="#3EC964"/>
<path d="M18.9188 26.2359C19.2074 26.5401 19.5679 26.6923 20.0004 26.6923C20.4333 26.6923 20.7934 26.5401 21.0821 26.2359L31.8515 15.4665C32.3481 15.0018 32.4605 14.4408 32.188 13.7837C31.916 13.1589 31.4431 12.8465 30.7698 12.8461H24.6158V2.07686C24.6158 1.66025 24.4633 1.29964 24.1593 0.995181C23.8545 0.690642 23.4941 0.53833 23.0777 0.53833H16.9232C16.5068 0.53833 16.1462 0.690642 15.8415 0.995181C15.5372 1.29964 15.3849 1.66017 15.3849 2.07686V12.8462H9.231C8.55759 12.8462 8.08508 13.159 7.81262 13.7838C7.54033 14.4406 7.6524 15.0019 8.14932 15.4666L18.9188 26.2359Z" fill="#3EC964"/>
</svg>
