<svg width="30" height="28" viewBox="0 0 30 28" fill="none" xmlns="http://www.w3.org/2000/svg">
<path d="M18.3106 0.910378C17.122 0.482455 16.5989 1.5166 15.3746 4.00093C15.232 4.27433 15.0774 4.60715 14.911 4.9281C14.7327 4.58338 14.5544 4.23867 14.4237 3.96527C13.342 1.81377 12.6882 0.518115 11.4282 0.886604C6.54276 2.27735 4.66466 12.393 5.06881 13.962C5.87711 17.0526 10.6437 17.326 15.0418 17.3497H15.5173C19.7727 17.3497 24.2183 17.0288 25.0266 14.1047C25.4308 12.4049 23.8023 2.82414 18.3106 0.910378Z" fill="#1B2841"/>
<path d="M15.6251 17.2903H14.9951C6.38914 17.2903 1.19463 16.7316 0.0891655 14.0571C0.029848 13.9127 -0.0004489 13.7581 5.02616e-06 13.602C0.000458953 13.4459 0.0316548 13.2914 0.0918111 13.1474C0.151967 13.0033 0.239906 12.8725 0.350607 12.7625C0.461307 12.6524 0.592601 12.5652 0.736993 12.5059C0.881384 12.4466 1.03605 12.4163 1.19215 12.4168C1.34825 12.4172 1.50273 12.4484 1.64677 12.5086C1.79082 12.5687 1.9216 12.6567 2.03166 12.7674C2.14172 12.8781 2.22889 13.0093 2.28821 13.1537C2.60915 13.9383 5.08159 14.8892 14.9951 14.913C24.9087 14.9368 27.3811 14.0334 27.7139 13.2488C27.7764 13.1052 27.8665 12.9753 27.9791 12.8665C28.0918 12.7577 28.2248 12.6722 28.3705 12.6148C28.5162 12.5574 28.6717 12.5293 28.8283 12.532C28.9849 12.5347 29.1394 12.5683 29.283 12.6307C29.4266 12.6932 29.5565 12.7833 29.6653 12.8959C29.7741 13.0086 29.8596 13.1415 29.917 13.2872C29.9744 13.4329 30.0025 13.5885 29.9998 13.7451C29.9971 13.9017 29.9635 14.0562 29.9011 14.1998C28.7956 16.7554 23.827 17.2903 15.6251 17.2903Z" fill="#1B2841"/>
<path d="M19.3085 18.1105C17.7943 18.0301 16.2909 18.407 14.9936 19.1922C13.6964 18.407 12.193 18.0301 10.6788 18.1105C7.33859 18.1105 5.1752 19.2991 5.1752 21.2723C5.12366 22.7885 5.67303 24.2636 6.70376 25.3767C7.73448 26.4898 9.16313 27.1508 10.6788 27.2157C11.5275 27.2049 12.3614 26.9923 13.1117 26.5955C13.862 26.1986 14.5071 25.6289 14.9936 24.9335C15.4776 25.6333 16.1215 26.2076 16.872 26.6087C17.6224 27.0098 18.4577 27.226 19.3085 27.2395C20.8242 27.1745 22.2528 26.5136 23.2835 25.4005C24.3143 24.2874 24.8636 22.8123 24.8121 21.2961C24.8121 19.3467 22.6487 18.1105 19.3085 18.1105Z" fill="#1B2841"/>
<path d="M16.184 21.2843C16.173 20.8664 16.0587 20.4577 15.8513 20.0947C15.6439 19.7317 15.3498 19.4257 14.9953 19.2041C14.6409 19.4257 14.3468 19.7317 14.1394 20.0947C13.932 20.4577 13.8177 20.8664 13.8067 21.2843C13.8031 22.6001 14.2195 23.8826 14.9953 24.9454C15.7591 23.8855 16.1745 22.6144 16.184 21.3081V21.2843Z" fill="#1B2841"/>
</svg>
