<svg width="30" height="30" viewBox="0 0 30 30" fill="none" xmlns="http://www.w3.org/2000/svg">
<g clip-path="url(#clip0_2557_64349)">
<path d="M20.4076 15.0001C20.4076 14.0229 20.3726 13.0786 20.3072 12.1716C19.2342 11.9658 18.3655 11.1781 18.0445 10.1504H9.89537C9.70107 11.6475 9.5918 13.2723 9.5918 15.0001C9.5918 16.06 9.63316 17.0809 9.70969 18.0577C10.7746 18.2687 11.6355 19.0536 11.9548 20.0758H20.0741C20.2872 18.5168 20.4076 16.8151 20.4076 15.0001Z" fill="#1B2841"/>
<path d="M21.1759 6.33447C22.3607 6.45939 23.3389 7.28738 23.6841 8.39252H28.463C26.5378 4.48537 22.9615 1.53248 18.6504 0.450195C19.2456 1.24813 19.7882 2.25184 20.2619 3.44832C20.6126 4.33426 20.9181 5.30234 21.1759 6.33447Z" fill="#1B2841"/>
<path d="M7.96248 18.2445C7.87781 17.187 7.83428 16.1015 7.83428 15.0001C7.83428 13.3329 7.93395 11.7024 8.12549 10.1504H0.804902C0.283535 11.6724 0 13.3037 0 15.0001C0 16.7808 0.312598 18.4897 0.884707 20.0758H6.31523C6.57211 19.2532 7.17996 18.5844 7.96248 18.2445Z" fill="#1B2841"/>
<path d="M8.88189 23.8966C7.6707 23.7934 6.66553 22.9569 6.31461 21.8335H1.64844C3.59879 25.6286 7.12045 28.4884 11.3483 29.5497C10.753 28.7518 10.2105 27.7481 9.73678 26.5516C9.4124 25.7322 9.12693 24.8422 8.88189 23.8966Z" fill="#1B2841"/>
<path d="M10.1738 8.3925H18.0458C18.2758 7.65621 18.7868 7.04291 19.4527 6.67857C18.4006 2.53195 16.6408 0 15.0009 0C13.1459 0 11.1376 3.24047 10.1738 8.3925Z" fill="#1B2841"/>
<path d="M6.71141 3.09072C6.71141 4.71928 5.38648 6.04426 3.75787 6.04426C3.51107 6.04426 3.27143 6.01338 3.04209 5.95607C2.46658 6.71522 1.96174 7.53061 1.53711 8.39246H8.38842C8.70857 6.57588 9.16279 4.90186 9.73824 3.44832C10.212 2.25184 10.7545 1.24813 11.3497 0.450195C9.65398 0.875879 8.07178 1.59066 6.65908 2.53947C6.69295 2.71818 6.71141 2.90229 6.71141 3.09072Z" fill="#1B2841"/>
<path d="M23.2887 26.9092C23.2887 25.2806 24.6137 23.9556 26.2423 23.9556C26.4891 23.9556 26.7287 23.9865 26.958 24.0438C27.4831 23.3512 27.95 22.6123 28.3502 21.8335H21.5706C21.2531 23.5628 20.8134 25.1587 20.2619 26.5516C19.7882 27.7481 19.2456 28.7518 18.6504 29.5497C20.3462 29.124 21.9284 28.4092 23.3411 27.4604C23.3072 27.2817 23.2887 27.0976 23.2887 26.9092Z" fill="#1B2841"/>
<path d="M19.7842 21.8335H11.9554C11.7313 22.5507 11.2403 23.1506 10.5996 23.518C11.6569 27.5476 13.3866 30 15.0002 30C16.8279 30 18.8046 26.8542 19.7842 21.8335Z" fill="#1B2841"/>
<path d="M29.115 20.0758C29.6871 18.4897 29.9997 16.7808 29.9997 15.0001C29.9997 13.3037 29.7161 11.6724 29.1948 10.1504H23.6845C23.4294 10.9671 22.8283 11.6319 22.0538 11.9741C22.1273 12.9625 22.1654 13.9743 22.1654 15.0001C22.1654 16.7483 22.056 18.4564 21.8457 20.0758H29.115Z" fill="#1B2841"/>
<path d="M20.8656 10.4671C21.5249 10.4671 22.0613 9.93076 22.0613 9.27141C22.0613 8.61205 21.5249 8.07568 20.8656 8.07568C20.2063 8.07568 19.6699 8.61205 19.6699 9.27141C19.6699 9.93076 20.2063 10.4671 20.8656 10.4671Z" fill="#1B2841"/>
<path d="M9.13518 22.1502C9.79556 22.1502 10.3309 21.6149 10.3309 20.9545C10.3309 20.2941 9.79556 19.7588 9.13518 19.7588C8.4748 19.7588 7.93945 20.2941 7.93945 20.9545C7.93945 21.6149 8.4748 22.1502 9.13518 22.1502Z" fill="#1B2841"/>
<path d="M3.75627 4.28646C4.41665 4.28646 4.95199 3.75112 4.95199 3.09074C4.95199 2.43036 4.41665 1.89502 3.75627 1.89502C3.09589 1.89502 2.56055 2.43036 2.56055 3.09074C2.56055 3.75112 3.09589 4.28646 3.75627 4.28646Z" fill="#1B2841"/>
<path d="M26.2426 25.7134C25.5832 25.7134 25.0469 26.2497 25.0469 26.9091C25.0469 27.5685 25.5832 28.1048 26.2426 28.1048C26.9019 28.1048 27.4383 27.5685 27.4383 26.9091C27.4383 26.2497 26.9019 25.7134 26.2426 25.7134Z" fill="#1B2841"/>
</g>
<defs>
<clipPath id="clip0_2557_64349">
<rect width="30" height="30" fill="white"/>
</clipPath>
</defs>
</svg>
