<svg width="30" height="30" viewBox="0 0 30 30" fill="none" xmlns="http://www.w3.org/2000/svg">
<g clip-path="url(#clip0_2557_64373)">
<path d="M28.8041 12.2168H22.8652C22.2052 12.2168 21.668 12.7551 21.668 13.4164V26.0465C21.668 26.7078 22.2052 27.2461 22.8646 27.2461H28.8035C29.4641 27.2461 30.0013 26.7078 30.0013 26.0465V13.4164C30.0013 12.7551 29.4641 12.2168 28.8041 12.2168ZM26.668 25.5762H25.0013C24.6941 25.5762 24.4457 25.3268 24.4457 25.0195C24.4457 24.7123 24.6941 24.4629 25.0013 24.4629H26.668C26.9752 24.4629 27.2235 24.7123 27.2235 25.0195C27.2235 25.3268 26.9752 25.5762 26.668 25.5762Z" fill="#1B2841"/>
<path d="M27.2222 11.1035V4.85745C27.2222 4.30359 26.9983 3.76198 26.6072 3.37066C26.2106 2.97267 25.6828 2.75391 25.1222 2.75391H2.09944C0.941667 2.75391 0 3.69741 0 4.85745V18.4629C0 19.0167 0.223889 19.5589 0.614444 19.9496C1.00611 20.3421 1.54667 20.5664 2.09944 20.5664H20.5556V13.4164C20.5556 12.1411 21.5906 11.1035 22.8633 11.1035H27.2222ZM14.4444 18.592H12.7778C12.4711 18.592 12.2222 18.3426 12.2222 18.0354C12.2222 17.7281 12.4711 17.4787 12.7778 17.4787H14.4444C14.7511 17.4787 15 17.7281 15 18.0354C15 18.3426 14.7511 18.592 14.4444 18.592Z" fill="#1B2841"/>
<path d="M19.4449 26.1328H17.2227V21.6797H10.0004V26.1328H7.77821C7.47155 26.1328 7.22266 26.3822 7.22266 26.6895C7.22266 26.9967 7.47155 27.2461 7.77821 27.2461H10.0004H17.2227H19.4449C19.7521 27.2461 20.0004 26.9967 20.0004 26.6895C20.0004 26.3822 19.7521 26.1328 19.4449 26.1328Z" fill="#1B2841"/>
</g>
<defs>
<clipPath id="clip0_2557_64373">
<rect width="30" height="30" fill="white"/>
</clipPath>
</defs>
</svg>
