<svg width="30" height="30" viewBox="0 0 30 30" fill="none" xmlns="http://www.w3.org/2000/svg">
<path d="M20.3203 16.0046H9.32031C7.67031 16.0046 6.32031 17.3542 6.32031 19.0036V27.001C6.32031 28.6504 7.67031 30 9.32031 30H20.3203C21.9703 30 23.3203 28.6504 23.3203 27.001V19.0036C23.3203 17.3542 21.9703 16.0046 20.3203 16.0046ZM11.3203 26.0013C11.3203 26.5511 10.8703 27.001 10.3203 27.001C9.77031 27.001 9.32031 26.5511 9.32031 26.0013V20.0033C9.32031 19.4535 9.77031 19.0036 10.3203 19.0036C10.8703 19.0036 11.3203 19.4535 11.3203 20.0033V26.0013ZM17.5203 24.6018H16.1203V26.0013C16.1203 26.5511 15.6703 27.001 15.1203 27.001C14.5703 27.001 14.1203 26.5511 14.1203 26.0013V20.0033C14.1203 19.4535 14.5703 19.0036 15.1203 19.0036H17.5203C19.0603 19.0036 20.3203 20.2632 20.3203 21.8027C20.3203 23.3422 19.0603 24.6018 17.5203 24.6018Z" fill="#1B2841"/>
<path d="M17.5206 21.0032H16.1211V22.6026H17.5206C17.9605 22.6026 18.3204 22.2428 18.3204 21.8029C18.3204 21.3631 17.9605 21.0032 17.5206 21.0032Z" fill="#1B2841"/>
<path d="M26.43 15.0249C25.96 11.9059 23.26 9.50673 20 9.50673C19.31 9.50673 18.64 9.6167 17.99 9.82663V11.0062C17.99 11.5561 17.54 12.0059 16.99 12.0059C16.44 12.0059 15.99 11.5561 15.99 11.0062V8.75698C14.6 7.63736 12.85 7.00757 11 7.00757C6.59 7.00757 3 10.5964 3 15.0049V15.1349C1.28 15.5747 0 17.1442 0 19.0036C0 21.2128 1.79 23.0022 4 23.0022H4.32V19.0036C4.32 16.2445 6.56 14.0052 9.32 14.0052H20.32C23.08 14.0052 25.32 16.2445 25.32 19.0036V23.0022H26C28.21 23.0022 30 21.2128 30 19.0036C30 16.9443 28.43 15.2448 26.43 15.0249Z" fill="#1B2841"/>
<path d="M19.0801 5.27839C19.5201 5.27839 19.9401 5.44833 20.2501 5.75823C20.5601 6.06812 20.7301 6.48798 20.7301 6.92784C20.7301 7.47765 21.1701 7.9275 21.7301 7.9275C22.2801 7.9275 22.7301 7.48765 22.7301 6.92784C22.7301 5.94816 22.3601 5.02847 21.6701 4.3387C20.9801 3.64893 20.0701 3.27905 19.1001 3.27905H19.0801C18.5301 3.27905 18.0801 3.7289 18.0801 4.27872C18.0801 4.82854 18.5301 5.27839 19.0801 5.27839Z" fill="#1B2841"/>
<path d="M19.7012 2.00933C19.7012 2.00933 19.7212 2.00933 19.7312 2.00933C20.8812 2.00933 21.9512 2.44918 22.7612 3.25891C23.5712 4.06864 24.0112 5.14828 24.0112 6.3079C24.0112 6.85771 24.4512 7.30756 25.0112 7.30756C25.5612 7.30756 26.0112 6.86771 26.0112 6.3079C26.0112 4.61846 25.3712 3.02899 24.1712 1.83939C22.9712 0.649783 21.4112 0 19.7312 0H19.7012C19.1512 0 18.7012 0.44985 18.7012 0.999666C18.7012 1.54948 19.1512 1.99933 19.7012 1.99933V2.00933Z" fill="#1B2841"/>
<path d="M18.1797 8.11708C18.3797 8.31701 18.6296 8.40698 18.8895 8.40698C19.1494 8.40698 19.3993 8.30702 19.5993 8.11708C19.9891 7.72721 19.9891 7.09742 19.5993 6.70755L19.3094 6.41765C18.9195 6.02778 18.2897 6.02778 17.8998 6.41765C17.51 6.80752 17.51 7.43731 17.8998 7.82718L18.1897 8.11708H18.1797Z" fill="#1B2841"/>
</svg>
