<svg width="30" height="30" viewBox="0 0 30 30" fill="none" xmlns="http://www.w3.org/2000/svg">
<g clip-path="url(#clip0_762_179)">
<path d="M10.5905 19.4092C10.359 19.1748 10.1422 18.9287 9.94009 18.6679C10.0163 18.7676 10.0924 18.8642 10.1686 18.9638C9.76138 18.4365 9.42447 17.8593 9.16373 17.247C9.21353 17.3642 9.26333 17.4814 9.31021 17.5957C9.04947 16.9687 8.87076 16.3154 8.77701 15.6416C8.79459 15.7705 8.81216 15.9023 8.82974 16.0312C8.73599 15.3369 8.73599 14.6338 8.82974 13.9394C8.81216 14.0683 8.79459 14.2002 8.77701 14.3291C8.87076 13.6582 9.04947 13.0019 9.31021 12.375C9.26041 12.4922 9.2106 12.6093 9.16373 12.7236C9.42447 12.1113 9.76138 11.5342 10.1686 11.0068C10.0924 11.1064 10.0163 11.2031 9.94009 11.3027C10.3473 10.7812 10.8161 10.3125 11.3405 9.90525C11.2409 9.98142 11.1442 10.0576 11.0446 10.1338C11.569 9.7324 12.1403 9.39841 12.7497 9.13767C12.6325 9.18747 12.5153 9.23728 12.401 9.28415C13.0309 9.02048 13.693 8.83884 14.3698 8.74802C14.2409 8.7656 14.109 8.78318 13.9801 8.80076C14.6598 8.70994 15.3483 8.70993 16.028 8.79783C15.8991 8.78025 15.7672 8.76267 15.6383 8.74509C16.3239 8.83591 16.9919 9.01755 17.6276 9.28415C17.5104 9.23435 17.3932 9.18454 17.279 9.13767C17.8883 9.39548 18.4596 9.72947 18.984 10.1338C18.8844 10.0576 18.7877 9.98142 18.6881 9.90525C19.2155 10.3125 19.6872 10.7871 20.0944 11.3115C20.0182 11.2119 19.942 11.1152 19.8659 11.0156C20.2672 11.54 20.6012 12.1113 20.862 12.7207C20.8122 12.6035 20.7624 12.4863 20.7155 12.372C20.9821 13.0078 21.1637 13.6758 21.2545 14.3613C21.237 14.2324 21.2194 14.1006 21.2018 13.9717C21.2897 14.6513 21.2897 15.3398 21.1989 16.0195C21.2165 15.8906 21.234 15.7588 21.2516 15.6299C21.2252 15.8232 21.193 16.0136 21.152 16.2041C21.07 16.5908 21.0963 16.9834 21.2985 17.332C21.4772 17.6367 21.8258 17.9267 22.1745 18.0058C22.5495 18.0908 22.9713 18.0732 23.3024 17.8593C23.6129 17.6601 23.8971 17.3554 23.9762 16.9834C24.2487 15.6797 24.2545 14.3818 23.9938 13.0781C23.8649 12.4336 23.6393 11.8271 23.3815 11.2265C23.1647 10.7197 22.8952 10.2363 22.5758 9.78806C21.7877 8.67771 20.8004 7.72849 19.6168 7.04294C19.0514 6.71482 18.4391 6.45115 17.818 6.24607C17.194 6.04099 16.5495 5.93259 15.8991 5.85935C15.3659 5.79783 14.8297 5.79197 14.2965 5.84177C13.6344 5.90329 12.9752 6.00876 12.3395 6.20505C11.0065 6.61814 9.79068 7.32419 8.76236 8.27048C7.93326 9.03513 7.22427 9.98142 6.74966 11.0068C6.49478 11.5605 6.26919 12.1289 6.11978 12.7207C5.9733 13.3037 5.88834 13.9072 5.85025 14.5049C5.78287 15.5801 5.92642 16.6992 6.25162 17.7246C6.62662 18.9052 7.22134 19.9511 8.00357 20.9062C8.16763 21.1054 8.34048 21.2959 8.52212 21.4804C8.7858 21.747 9.18423 21.9082 9.55923 21.9082C9.91958 21.9082 10.3473 21.75 10.5963 21.4804C10.8512 21.2021 11.0417 20.8359 11.0241 20.4433C11.0006 20.0566 10.8688 19.6904 10.5905 19.4092Z" fill="#1B2841"/>
<path d="M27.8405 21.3516C28.7517 19.4678 29.2673 17.4346 29.32 15.3399C29.3728 13.3096 28.9714 11.2823 28.1804 9.41313C27.3689 7.49125 26.1384 5.7393 24.5769 4.35063C22.9861 2.93266 21.1111 1.86918 19.0632 1.25981C18.0759 0.966841 17.0476 0.79399 16.0222 0.714888C14.9763 0.632857 13.9421 0.69731 12.9021 0.837935C11.9851 0.963912 11.0827 1.18071 10.2126 1.49418C9.15793 1.87504 8.1384 2.36137 7.2009 2.97661C5.36398 4.1895 3.79367 5.80668 2.66574 7.70512C2.1589 8.56059 1.74875 9.48051 1.42355 10.4209C1.10129 11.3614 0.910856 12.3252 0.78488 13.3096C0.544645 15.1465 0.699919 17.0538 1.19504 18.8379C1.45871 19.7901 1.83371 20.7217 2.28488 21.6036C2.74777 22.5059 3.32492 23.335 3.96359 24.1231C4.24777 24.4747 4.55246 24.8086 4.86886 25.128C5.13254 25.3946 5.53097 25.5557 5.90597 25.5557C6.26633 25.5557 6.69406 25.3975 6.94308 25.128C7.19797 24.8497 7.3884 24.4834 7.37082 24.0909C7.35324 23.7012 7.2214 23.335 6.94308 23.0538C6.55051 22.6582 6.18137 22.2393 5.83859 21.7998C5.91476 21.8995 5.99094 21.9961 6.06711 22.0957C5.39914 21.2256 4.84543 20.2764 4.41769 19.2657C4.4675 19.3829 4.5173 19.5 4.56418 19.6143C4.12179 18.5655 3.82297 17.461 3.66769 16.3331C3.68527 16.462 3.70285 16.5938 3.72043 16.7227C3.56808 15.5743 3.56808 14.4112 3.72043 13.2657C3.70285 13.3946 3.68527 13.5264 3.66769 13.6553C3.82297 12.5274 4.12179 11.4229 4.56418 10.3741C4.51437 10.4913 4.46457 10.6084 4.41769 10.7227C4.84543 9.71489 5.40207 8.76274 6.06711 7.89262C5.99094 7.99223 5.91476 8.08891 5.83859 8.18852C6.52121 7.30668 7.31222 6.51567 8.19113 5.83305C8.09152 5.90922 7.99484 5.9854 7.89523 6.06157C8.76535 5.3936 9.71457 4.83989 10.7224 4.40922C10.6052 4.45903 10.488 4.50883 10.3737 4.55571C11.4343 4.1104 12.5476 3.80571 13.6872 3.65336C13.5583 3.67094 13.4265 3.68852 13.2976 3.7061C14.4284 3.55668 15.5769 3.55668 16.7077 3.7061C16.5788 3.68852 16.447 3.67094 16.3181 3.65336C17.4577 3.80571 18.571 4.1104 19.6316 4.55571C19.5144 4.5059 19.3972 4.4561 19.2829 4.40922C20.2995 4.84282 21.2546 5.40239 22.1277 6.07622C22.028 6.00004 21.9314 5.92387 21.8318 5.8477C22.6931 6.5186 23.4694 7.29497 24.1433 8.15922C24.0671 8.05961 23.9909 7.96293 23.9148 7.86333C24.5886 8.73637 25.1511 9.69438 25.5818 10.7081C25.532 10.5909 25.4821 10.4737 25.4353 10.3594C25.8806 11.42 26.1853 12.5332 26.3376 13.6729C26.32 13.544 26.3025 13.4122 26.2849 13.2832C26.4343 14.4141 26.4343 15.5625 26.2849 16.6934C26.3025 16.5645 26.32 16.4327 26.3376 16.3038C26.1853 17.4434 25.8806 18.5567 25.4353 19.6172C25.4851 19.5 25.5349 19.3829 25.5818 19.2686C25.4968 19.4678 25.406 19.667 25.3122 19.8633C25.1394 20.2237 25.0544 20.5957 25.1657 20.9913C25.2595 21.3311 25.5232 21.7002 25.8396 21.8672C26.1794 22.0459 26.5925 22.1368 26.9675 22.0137C27.3103 21.9141 27.6736 21.6915 27.8405 21.3516Z" fill="#1B2841"/>
<path d="M15.4693 15.4688C15.4078 15.5274 15.3433 15.586 15.276 15.6387C15.3756 15.5625 15.4722 15.4864 15.5719 15.4102C15.4283 15.5186 15.273 15.6094 15.109 15.6826C15.2261 15.6328 15.3433 15.583 15.4576 15.5362C15.2818 15.6094 15.1002 15.6592 14.9127 15.6885C15.0416 15.6709 15.1734 15.6533 15.3023 15.6358C15.1148 15.6592 14.9273 15.6621 14.7398 15.6387C14.8687 15.6563 15.0006 15.6739 15.1295 15.6914C14.942 15.6651 14.7603 15.6182 14.5845 15.5479C14.7017 15.5977 14.8189 15.6475 14.9332 15.6944C14.7545 15.6182 14.5875 15.5215 14.4322 15.4014C14.5318 15.4776 14.6285 15.5537 14.7281 15.6299C14.5933 15.5215 14.4732 15.4014 14.3648 15.2666C14.441 15.3662 14.5172 15.4629 14.5933 15.5625C14.4732 15.4073 14.3765 15.2432 14.3004 15.0615C14.3502 15.1787 14.4 15.2959 14.4469 15.4102C14.3765 15.2344 14.3267 15.0528 14.3033 14.8653C14.3209 14.9942 14.3385 15.126 14.356 15.2549C14.3355 15.0674 14.3355 14.8799 14.359 14.6924C14.3414 14.8213 14.3238 14.9532 14.3062 15.0821C14.3355 14.8946 14.3853 14.7129 14.4586 14.5371C14.4088 14.6543 14.359 14.7715 14.3121 14.8858C14.3853 14.7188 14.4761 14.5664 14.5845 14.4229C14.5084 14.5225 14.4322 14.6192 14.356 14.7188C14.4088 14.6514 14.4644 14.5869 14.526 14.5254C13.8345 14.5254 13.1461 14.5254 12.4547 14.5254L15.0943 17.1651L15.4635 17.5342C15.7301 17.8008 16.1226 17.9619 16.5006 17.9619C16.8609 17.9619 17.2886 17.8037 17.5377 17.5342C17.7926 17.2559 17.983 16.8897 17.9654 16.4971C17.9478 16.1074 17.816 15.7412 17.5377 15.46C16.6588 14.5811 15.7769 13.6992 14.898 12.8203C14.775 12.6973 14.6519 12.5742 14.5289 12.4512C13.9752 11.8975 13.0084 11.8799 12.4576 12.4512C12.2174 12.6973 11.9918 12.9815 11.8394 13.292C11.6871 13.5967 11.5494 13.9219 11.4937 14.2588C11.4586 14.4785 11.4205 14.7041 11.4146 14.9297C11.4088 15.167 11.4498 15.4043 11.482 15.6387C11.5318 15.9844 11.6607 16.292 11.8072 16.6114C12.0914 17.2295 12.6422 17.7803 13.234 18.1084C13.524 18.2696 13.8463 18.4073 14.1744 18.4776C14.5054 18.5479 14.8629 18.6006 15.2027 18.5684C15.4459 18.5449 15.692 18.5186 15.9293 18.4571C16.1607 18.3985 16.3892 18.293 16.606 18.1963C16.9517 18.041 17.2681 17.7949 17.5406 17.5342C17.8072 17.2764 17.9683 16.8662 17.9683 16.4971C17.9683 16.1367 17.8101 15.709 17.5406 15.46C17.2623 15.2051 16.8961 15.0147 16.5035 15.0323C16.1138 15.0586 15.7564 15.1934 15.4693 15.4688Z" fill="#1B2841"/>
<path d="M29.2521 27.1816C28.7628 26.6924 28.2736 26.2031 27.7843 25.7139C26.6623 24.5918 25.5402 23.4697 24.4152 22.3447C23.1613 21.0908 21.9044 19.834 20.6505 18.5801C19.7628 17.6924 18.8751 16.8047 17.9904 15.9199C17.4923 15.4219 16.9914 14.9209 16.4933 14.4229C15.7931 13.7227 15.09 13.0195 14.3898 12.3193C13.6662 11.5957 12.9425 10.8721 12.2189 10.1484C11.006 8.93555 9.79312 7.72266 8.58316 6.5127C7.37906 5.30859 6.17788 4.10742 4.97378 2.90332C4.28823 2.21777 3.60269 1.53223 2.91421 0.84375C2.88198 0.811523 2.84976 0.779297 2.81753 0.74707C2.55093 0.480469 2.15835 0.319336 1.78042 0.319336C1.42007 0.319336 0.992336 0.477539 0.743313 0.74707C0.48843 1.02539 0.298 1.3916 0.315578 1.78418C0.333156 2.17383 0.464992 2.54004 0.743313 2.82129L2.21109 4.28906L5.58023 7.6582C6.83413 8.91211 8.09097 10.1689 9.34488 11.4229L12.005 14.083L13.5021 15.5801C14.2023 16.2803 14.9054 16.9834 15.6056 17.6836L17.7765 19.8545L21.4123 23.4902L25.0216 27.0996L27.0812 29.1592L27.1779 29.2559C27.4445 29.5225 27.8371 29.6836 28.215 29.6836C28.5753 29.6836 29.0031 29.5254 29.2521 29.2559C29.507 28.9775 29.6974 28.6113 29.6798 28.2188C29.6652 27.8291 29.5334 27.4629 29.2521 27.1816Z" fill="#1B2841"/>
</g>
<defs>
<clipPath id="clip0_762_179">
<rect width="30" height="30" fill="white"/>
</clipPath>
</defs>
</svg>
