<svg width="50" height="50" viewBox="0 0 50 50" fill="none" xmlns="http://www.w3.org/2000/svg">
<g clip-path="url(#clip0_2557_46131)">
<path d="M24.9995 15.4746C19.7462 15.4746 15.4727 19.7482 15.4727 25.001C15.4727 30.2542 19.7462 34.5278 24.9995 34.5278C30.2523 34.5278 34.5259 30.2542 34.5259 25.001C34.5259 19.7482 30.2523 15.4746 24.9995 15.4746ZM30.6555 23.207L23.8306 30.0318C23.5442 30.3183 23.1684 30.4618 22.793 30.4618C22.4177 30.4618 22.0423 30.3187 21.7558 30.0318L19.1477 27.4237C18.5748 26.8511 18.5748 25.9223 19.1477 25.3493C19.7203 24.7763 20.6492 24.7763 21.2222 25.3493L22.793 26.9202L28.5811 21.1326C29.1536 20.5596 30.0825 20.5596 30.6555 21.1326C31.2285 21.7051 31.2285 22.634 30.6555 23.207Z" fill="#3EC964"/>
<path d="M46.239 13.5663L46.2374 13.5274C46.2157 13.0471 46.2012 12.539 46.1924 11.9736C46.1516 9.21676 43.9601 6.93634 41.2028 6.78223C35.4541 6.46141 31.0069 4.58687 27.2071 0.883195L27.1747 0.852296C25.9353 -0.284099 24.0657 -0.284099 22.8259 0.852296L22.7935 0.883195C18.9937 4.58687 14.5465 6.46141 8.7978 6.78261C6.04093 6.93634 3.84901 9.21676 3.80819 11.974C3.7998 12.5355 3.78492 13.0437 3.76318 13.5274L3.76089 13.6178C3.64912 19.4798 3.51027 26.7754 5.9509 33.3973C7.29291 37.0388 9.32538 40.2042 11.9915 42.8062C15.028 45.7695 19.0051 48.122 23.8124 49.7982C23.9688 49.8527 24.1313 49.897 24.2969 49.9301C24.5303 49.9767 24.7653 50 25.0003 50C25.2353 50 25.4707 49.9767 25.7037 49.9301C25.8693 49.897 26.0329 49.8523 26.1901 49.7974C30.9916 48.1182 34.9646 45.7645 37.9985 42.8016C40.6634 40.1989 42.6959 37.0327 44.039 33.3904C46.4888 26.7487 46.3503 19.4394 46.239 13.5663ZM24.9995 37.4615C18.1285 37.4615 12.5389 31.8718 12.5389 25.0008C12.5389 18.1298 18.1285 12.5401 24.9995 12.5401C31.8702 12.5401 37.4602 18.1298 37.4602 25.0008C37.4602 31.8718 31.8702 37.4615 24.9995 37.4615Z" fill="#3EC964"/>
</g>
<defs>
<clipPath id="clip0_2557_46131">
<rect width="50" height="50" fill="white"/>
</clipPath>
</defs>
</svg>
