<svg width="30" height="30" viewBox="0 0 30 30" fill="none" xmlns="http://www.w3.org/2000/svg">
<g clip-path="url(#clip0_762_163)">
<path fill-rule="evenodd" clip-rule="evenodd" d="M25.7871 24.0113C24.5079 23.3618 22.9204 22.83 21.1483 22.4586C21.071 22.5224 20.9923 22.5846 20.913 22.6461C20.1657 25.4523 19.0562 27.5679 17.7421 28.793C20.8908 28.1636 23.7296 26.4761 25.7871 24.0109L25.7871 24.0113ZM12.2582 28.7934C10.9441 27.5684 9.83449 25.4527 9.0873 22.6465C9.00803 22.5848 8.9291 22.5226 8.85205 22.459C7.07988 22.8302 5.49234 23.362 4.21318 24.0117C6.27073 26.4769 9.10943 28.1643 12.2581 28.7938L12.2582 28.7934ZM4.21324 5.98875C5.4924 6.63855 7.07994 7.17006 8.85211 7.54148C8.92939 7.47762 9.00809 7.41545 9.08736 7.35398C9.83455 4.54775 10.9441 2.43211 12.2582 1.20703C9.10951 1.8365 6.27078 3.52392 4.2133 5.98916L4.21324 5.98875ZM29.0539 14.5312C28.9632 11.724 28.0293 9.00916 26.3738 6.74027C25.1477 7.38428 23.6501 7.92129 21.9819 8.31645C23.596 9.99641 24.5469 12.2042 24.6586 14.5312H29.0539ZM21.9819 21.6838C23.596 20.0037 24.5469 17.7959 24.6586 15.4688H29.0539C28.9632 18.276 28.0293 20.9908 26.3738 23.2597C25.1477 22.6157 23.6501 22.0784 21.9819 21.6836V21.6838ZM0.94623 15.4688H5.34141C5.4531 17.7959 6.40401 20.0038 8.01814 21.6838C6.34992 22.0785 4.85244 22.6158 3.62625 23.26C1.97062 20.991 1.03672 18.2761 0.94623 15.4688ZM8.01814 8.31633C6.40398 9.9963 5.45307 12.2042 5.34141 14.5312H0.94623C1.03677 11.724 1.97066 9.00917 3.62625 6.74033C4.85244 7.38434 6.34992 7.92135 8.01814 8.3165V8.31633ZM13.9971 5.38184C12.6984 5.51305 11.4404 5.90908 10.3008 6.54545C11.4254 3.0552 13.1759 0.9375 15 0.9375C16.8241 0.9375 18.575 3.05549 19.6992 6.54551C18.5588 5.90875 17.2999 5.51264 16.0004 5.38166C15.9951 5.38107 15.9899 5.38025 15.9846 5.37967C15.9286 5.37416 15.8725 5.36947 15.8162 5.36479C15.7751 5.36115 15.7339 5.35793 15.6927 5.35512C15.6473 5.35178 15.602 5.34926 15.5566 5.3465C15.5001 5.34322 15.4435 5.34064 15.3867 5.33854C15.3515 5.33713 15.3163 5.33549 15.2812 5.33437C15.1874 5.33162 15.0937 5.32992 14.9994 5.32992C14.9051 5.32992 14.8111 5.33162 14.7175 5.33437C14.6824 5.33549 14.6476 5.33713 14.6127 5.33854C14.5558 5.3407 14.499 5.34322 14.4428 5.3465C14.3974 5.34902 14.3523 5.35178 14.3071 5.35512C14.2656 5.35787 14.224 5.36145 14.1827 5.36479C14.1267 5.36947 14.0709 5.37416 14.0152 5.37967C14.0094 5.38055 14.0028 5.38107 13.9966 5.38189L13.9971 5.38184ZM16.0031 24.6186C17.3017 24.4871 18.5596 24.091 19.6992 23.4547C18.5746 26.9449 16.8241 29.0625 15 29.0625C13.1759 29.0625 11.4254 26.9447 10.3008 23.4545C11.4404 24.0908 12.6983 24.4869 13.9969 24.6184C14.0028 24.6189 14.0094 24.6197 14.0155 24.6203C14.0712 24.6258 14.1268 24.6305 14.183 24.6352C14.2243 24.6385 14.2658 24.6418 14.3074 24.6449C14.3526 24.6482 14.3977 24.6507 14.4431 24.6535C14.4996 24.6568 14.5563 24.6594 14.613 24.6618C14.6481 24.6629 14.6828 24.6645 14.7178 24.6656C14.8116 24.6684 14.9053 24.67 14.9997 24.67C15.0941 24.67 15.1879 24.6684 15.2815 24.6656C15.3166 24.6645 15.3513 24.6629 15.3863 24.6618C15.4432 24.6592 15.5 24.6568 15.5562 24.6535C15.6016 24.651 15.6467 24.6482 15.6919 24.6449C15.7336 24.6418 15.775 24.6386 15.8163 24.6352C15.8723 24.6305 15.9281 24.6258 15.9838 24.6203C15.9901 24.6197 15.9962 24.6189 16.0025 24.6184L16.0031 24.6186ZM17.7422 1.20703C20.8907 1.8364 23.7294 3.52348 25.7871 5.98828C24.5079 6.63867 22.9204 7.16988 21.1483 7.54102C21.0711 7.47715 20.9924 7.41498 20.9132 7.35352C20.1662 4.54688 19.0565 2.43164 17.7424 1.2065L17.7422 1.20703ZM30 15C30 23.271 23.271 30 15 30C6.72896 30 0 23.2711 0 15C0 6.72891 6.72896 0 15 0C23.271 0 30 6.72896 30 15ZM19.2398 16.8793H11.8921L13.4012 15.3701C13.4869 15.2818 13.5345 15.1632 13.5336 15.0401C13.5327 14.917 13.4833 14.7992 13.3963 14.7121C13.3092 14.625 13.1913 14.5758 13.0682 14.5749C12.9451 14.574 12.8265 14.6216 12.7382 14.7074L10.429 17.0163C10.3855 17.0599 10.3509 17.1115 10.3274 17.1684C10.3038 17.2253 10.2917 17.2863 10.2917 17.3479C10.2917 17.4095 10.3038 17.4704 10.3274 17.5273C10.3509 17.5842 10.3855 17.6359 10.429 17.6794L12.7382 19.9884C12.7815 20.033 12.8332 20.0685 12.8904 20.0929C12.9475 20.1173 13.0089 20.1301 13.071 20.1306C13.1332 20.131 13.1948 20.1192 13.2523 20.0956C13.3098 20.072 13.362 20.0373 13.4059 19.9933C13.4499 19.9494 13.4847 19.8972 13.5082 19.8397C13.5318 19.7822 13.5437 19.7206 13.5433 19.6585C13.5428 19.5964 13.53 19.5349 13.5056 19.4778C13.4812 19.4206 13.4457 19.3689 13.4012 19.3256L11.8921 17.8168H19.2398C19.3641 17.8168 19.4833 17.7674 19.5712 17.6795C19.6591 17.5916 19.7085 17.4723 19.7085 17.348C19.7085 17.2237 19.6591 17.1045 19.5712 17.0166C19.4833 16.9287 19.3641 16.8793 19.2398 16.8793ZM19.5712 12.3207L17.2621 10.0114C17.2185 9.96792 17.1669 9.93339 17.11 9.90983C17.0531 9.88628 16.9921 9.87416 16.9306 9.87417C16.869 9.87417 16.808 9.8863 16.7512 9.90987C16.6943 9.93343 16.6426 9.96797 16.5991 10.0115C16.5556 10.055 16.521 10.1067 16.4975 10.1636C16.4739 10.2205 16.4618 10.2814 16.4618 10.343C16.4618 10.4046 16.4739 10.4655 16.4975 10.5224C16.5211 10.5793 16.5556 10.631 16.5991 10.6745L18.108 12.1836H10.7604C10.6361 12.1836 10.5168 12.233 10.4289 12.3209C10.341 12.4088 10.2916 12.5281 10.2916 12.6524C10.2916 12.7767 10.341 12.8959 10.4289 12.9838C10.5168 13.0717 10.6361 13.1211 10.7604 13.1211H18.108L16.5991 14.6303C16.5544 14.6735 16.5187 14.7253 16.4941 14.7824C16.4696 14.8396 16.4566 14.9012 16.4561 14.9634C16.4556 15.0256 16.4675 15.0874 16.491 15.145C16.5146 15.2026 16.5494 15.2549 16.5934 15.2989C16.6375 15.3429 16.6898 15.3777 16.7474 15.4013C16.805 15.4248 16.8668 15.4367 16.929 15.4361C16.9912 15.4356 17.0527 15.4226 17.1099 15.398C17.1671 15.3735 17.2188 15.3377 17.2621 15.293L19.5712 12.984C19.6148 12.9405 19.6494 12.8888 19.673 12.8319C19.6966 12.775 19.7088 12.714 19.7088 12.6524C19.7088 12.5907 19.6966 12.5297 19.673 12.4728C19.6494 12.4159 19.6148 12.3642 19.5712 12.3207Z" fill="#1B2841"/>
</g>
<defs>
<clipPath id="clip0_762_163">
<rect width="30" height="30" fill="white"/>
</clipPath>
</defs>
</svg>
