<svg width="30" height="30" viewBox="0 0 30 30" fill="none" xmlns="http://www.w3.org/2000/svg">
<path d="M7.43555 13.5936H13.5788V8.95248C11.9075 8.90836 10.1062 8.74512 8.35655 8.51514C7.83664 10.1854 7.51883 11.9129 7.43555 13.5936Z" fill="#1B2841"/>
<path d="M15.3728 0.0291797C15.3594 0.0174023 15.3398 0 15.3398 0V7.19402C16.8159 7.15307 18.4003 7.01484 19.956 6.81867C18.888 4.17826 17.3127 1.72389 15.3728 0.0291797Z" fill="#1B2841"/>
<path d="M8.3942 20.5564C10.1449 20.3209 11.9299 20.1555 13.5788 20.1104V15.3516H7.43555C7.52076 17.0732 7.85212 18.8457 8.3942 20.5564Z" fill="#1B2841"/>
<path d="M21.3588 12.1711C21.2058 10.9494 20.9366 9.71836 20.5624 8.5166C18.8153 8.74746 17.0195 8.90918 15.3398 8.95312V13.5937H18.4927C19.3842 13.3424 20.4211 12.9111 21.3588 12.1711Z" fill="#1B2841"/>
<path d="M23.0317 11.4423C23.6883 11.4004 24.3576 11.6083 24.885 12.0481C25.8609 12.8638 26.9617 13.329 27.9012 13.5938H28.9182C28.7844 11.3556 28.1434 9.21455 27.0497 7.30322C25.709 7.64131 24.0715 7.97822 22.3203 8.25947C22.6335 9.31182 22.8728 10.3806 23.0317 11.4423Z" fill="#1B2841"/>
<path d="M8.96094 6.82219C10.5157 7.01678 12.0999 7.15371 13.5785 7.1942V0C13.5785 0 13.557 0.0192188 13.5455 0.0291797C11.6048 1.72465 10.029 4.18037 8.96094 6.82219Z" fill="#1B2841"/>
<path d="M21.7448 6.56646C23.308 6.32342 24.7823 6.03514 26.0158 5.74521C24.1173 3.24637 21.4185 1.34512 18.2227 0.491699C19.716 2.25332 20.9035 4.36598 21.7448 6.56646Z" fill="#1B2841"/>
<path d="M13.5795 28.9077V21.8694C12.1338 21.9119 10.5638 22.0528 9.00977 22.2525C10.0829 24.8685 11.6525 27.2349 13.5795 28.9077Z" fill="#1B2841"/>
<path d="M7.21775 22.5088C5.68845 22.7494 4.23229 23.0336 2.99219 23.3205C4.91137 25.7927 7.58189 27.617 10.6687 28.4472C9.20162 26.7058 8.04421 24.6397 7.21775 22.5088Z" fill="#1B2841"/>
<path d="M6.59756 8.25956C4.82406 7.97743 3.17594 7.64192 1.86294 7.31274C0.772095 9.22132 0.13313 11.3594 0 13.5938H5.67451C5.75468 11.8431 6.07096 10.0277 6.59756 8.25956Z" fill="#1B2841"/>
<path d="M15.3398 23.6968V28.9081C15.9768 28.355 16.575 27.7263 17.1274 27.0378C16.3648 26.0441 15.7559 24.9065 15.3398 23.6968Z" fill="#1B2841"/>
<path d="M5.67451 15.3516H0C0.13618 17.6377 0.802475 19.8227 1.94 21.7645C3.29388 21.4292 4.91725 21.0967 6.63504 20.8178C6.08586 19.0071 5.75649 17.1449 5.67451 15.3516Z" fill="#1B2841"/>
<path d="M10.6943 0.491943C7.5576 1.32954 4.83395 3.19751 2.89453 5.75407C4.13006 6.04312 5.60575 6.33005 7.17017 6.57175C8.00238 4.39335 9.18554 2.27167 10.6943 0.491943Z" fill="#1B2841"/>
<path d="M29.2238 15.6424C28.0391 15.5053 25.7131 15.0312 23.7566 13.397C23.4329 13.1263 22.9602 13.1281 22.6364 13.3982C20.6805 15.0318 18.3551 15.5053 17.171 15.6424C16.7277 15.6939 16.3945 16.0695 16.3945 16.5154V19.4791C16.3945 22.5459 17.6349 25.434 19.7433 27.2739L22.6188 29.7835C22.9502 30.0723 23.4446 30.0723 23.776 29.7835L26.6515 27.2739C28.7599 25.434 30.0009 22.5459 30.0009 19.4791V16.5154C30.0009 16.0695 29.6671 15.6939 29.2238 15.6424ZM26.8691 20.0697L23.8194 23.1166C23.4753 23.4603 22.9195 23.4605 22.5754 23.1166L20.9333 21.476C20.5896 21.1332 20.5896 20.5766 20.9333 20.2332C21.277 19.8899 21.8341 19.8899 22.1772 20.2332L23.1977 21.2522L25.6251 18.827C25.9688 18.4836 26.526 18.4836 26.8691 18.827C27.2127 19.1703 27.2127 19.727 26.8691 20.0697Z" fill="#1B2841"/>
</svg>
