<svg width="50" height="50" viewBox="0 0 50 50" fill="none" xmlns="http://www.w3.org/2000/svg">
<g clip-path="url(#clip0_2557_46188)">
<g clip-path="url(#clip1_2557_46188)">
<path d="M12.3926 22.6565H22.6313V14.9213C19.8458 14.8478 16.8437 14.5757 13.9276 14.1924C13.0611 16.9762 12.5314 19.8553 12.3926 22.6565Z" fill="#3EC964"/>
<path d="M25.6194 0.0486328C25.597 0.0290039 25.5645 0 25.5645 0V11.99C28.0246 11.9218 30.6651 11.6914 33.258 11.3645C31.4781 6.96377 28.8526 2.87314 25.6194 0.0486328Z" fill="#3EC964"/>
<path d="M13.9903 34.2607C16.9081 33.8682 19.8832 33.5926 22.6313 33.5174V25.5859H12.3926C12.5346 28.4553 13.0869 31.4095 13.9903 34.2607Z" fill="#3EC964"/>
<path d="M35.5961 20.2852C35.341 18.249 34.8924 16.1973 34.2687 14.1943C31.3569 14.5791 28.3639 14.8486 25.5645 14.9219V22.6562H30.8193C32.305 22.2373 34.0332 21.5186 35.5961 20.2852Z" fill="#3EC964"/>
<path d="M38.3849 19.0703C39.4792 19.0005 40.5946 19.347 41.4736 20.0801C43.1001 21.4395 44.9348 22.2148 46.5007 22.6562H48.1956C47.9728 18.9258 46.9044 15.3574 45.0815 12.1719C42.847 12.7354 40.1179 13.2969 37.1992 13.7656C37.7212 15.5195 38.12 17.3008 38.3849 19.0703Z" fill="#3EC964"/>
<path d="M14.9355 11.3703C17.5268 11.6946 20.1671 11.9229 22.6315 11.9903V0C22.6315 0 22.5956 0.0320312 22.5765 0.0486328C19.3419 2.87441 16.7156 6.96728 14.9355 11.3703Z" fill="#3EC964"/>
<path d="M36.2433 10.9439C38.8486 10.5389 41.3057 10.0584 43.3616 9.5752C40.1974 5.41045 35.6994 2.2417 30.373 0.819336C32.862 3.75537 34.8411 7.27646 36.2433 10.9439Z" fill="#3EC964"/>
<path d="M22.6318 48.1797V36.4492C20.2224 36.52 17.6057 36.755 15.0156 37.0878C16.8042 41.4478 19.4203 45.3917 22.6318 48.1797Z" fill="#3EC964"/>
<path d="M12.0309 37.5146C9.48206 37.9157 7.05512 38.3893 4.98828 38.8676C8.18692 42.9879 12.6378 46.0283 17.7825 47.412C15.3373 44.5097 13.4083 41.0662 12.0309 37.5146Z" fill="#3EC964"/>
<path d="M10.9959 13.766C8.0401 13.2958 5.29324 12.7366 3.1049 12.188C1.28683 15.3689 0.221883 18.9324 0 22.6563H9.45751C9.59113 19.7386 10.1183 16.713 10.9959 13.766Z" fill="#3EC964"/>
<path d="M25.5645 39.4941V48.1797C26.626 47.2578 27.623 46.21 28.5438 45.0625C27.2727 43.4063 26.258 41.5104 25.5645 39.4941Z" fill="#3EC964"/>
<path d="M9.45751 25.5859H0C0.226966 29.3961 1.33746 33.0378 3.23334 36.2741C5.48981 35.7153 8.19541 35.1611 11.0584 34.6963C10.1431 31.6784 9.59416 28.5749 9.45751 25.5859Z" fill="#3EC964"/>
<path d="M17.8238 0.819824C12.596 2.21582 8.05658 5.3291 4.82422 9.59004C6.88343 10.0718 9.34292 10.55 11.9503 10.9528C13.3373 7.32217 15.3092 3.78604 17.8238 0.819824Z" fill="#3EC964"/>
<path d="M48.7043 26.0705C46.7298 25.8419 42.8532 25.0519 39.5924 22.3283C39.0528 21.8771 38.265 21.88 37.7254 22.3302C34.4656 25.0529 30.5899 25.8419 28.6164 26.0705C27.8775 26.1564 27.3223 26.7824 27.3223 27.5255V32.465C27.3223 37.5764 29.3896 42.3899 32.9036 45.4563L37.6961 49.639C38.2484 50.1204 39.0724 50.1204 39.6246 49.639L44.4172 45.4563C47.9311 42.3899 49.9995 37.5764 49.9995 32.465V27.5255C49.9995 26.7824 49.4433 26.1564 48.7043 26.0705ZM44.7798 33.4494L39.697 38.5276C39.1236 39.1004 38.1973 39.1006 37.6238 38.5276L34.8869 35.7932C34.3141 35.2219 34.3141 34.2941 34.8869 33.7219C35.4597 33.1496 36.3883 33.1496 36.9601 33.7219L38.6609 35.4201L42.7066 31.3781C43.2794 30.8058 44.208 30.8058 44.7798 31.3781C45.3526 31.9504 45.3526 32.8781 44.7798 33.4494Z" fill="#3EC964"/>
</g>
</g>
<defs>
<clipPath id="clip0_2557_46188">
<rect width="50" height="50" fill="white"/>
</clipPath>
<clipPath id="clip1_2557_46188">
<rect width="50" height="50" fill="white"/>
</clipPath>
</defs>
</svg>
