<svg width="50" height="50" viewBox="0 0 50 50" fill="none" xmlns="http://www.w3.org/2000/svg">
<g clip-path="url(#clip0_2557_46168)">
<path d="M33.8665 26.6743H15.5332C12.7832 26.6743 10.5332 28.9236 10.5332 31.6726V45.0015C10.5332 47.7506 12.7832 49.9999 15.5332 49.9999H33.8665C36.6165 49.9999 38.8665 47.7506 38.8665 45.0015V31.6726C38.8665 28.9236 36.6165 26.6743 33.8665 26.6743ZM18.8665 43.3354C18.8665 44.2518 18.1165 45.0015 17.1999 45.0015C16.2832 45.0015 15.5332 44.2518 15.5332 43.3354V33.3388C15.5332 32.4224 16.2832 31.6726 17.1999 31.6726C18.1165 31.6726 18.8665 32.4224 18.8665 33.3388V43.3354ZM29.1999 41.0029H26.8665V43.3354C26.8665 44.2518 26.1165 45.0015 25.1999 45.0015C24.2832 45.0015 23.5332 44.2518 23.5332 43.3354V33.3388C23.5332 32.4224 24.2832 31.6726 25.1999 31.6726H29.1999C31.7665 31.6726 33.8665 33.7719 33.8665 36.3378C33.8665 38.9036 31.7665 41.0029 29.1999 41.0029Z" fill="#3EC964"/>
<path d="M29.1997 35.0049H26.8672V37.6707H29.1997C29.9328 37.6707 30.5326 37.0709 30.5326 36.3378C30.5326 35.6047 29.9328 35.0049 29.1997 35.0049Z" fill="#3EC964"/>
<path d="M44.05 25.0419C43.2667 19.8436 38.7667 15.845 33.3333 15.845C32.1833 15.845 31.0667 16.0282 29.9833 16.3781V18.3441C29.9833 19.2605 29.2333 20.0102 28.3167 20.0102C27.4 20.0102 26.65 19.2605 26.65 18.3441V14.5954C24.3333 12.7293 21.4167 11.6797 18.3333 11.6797C10.9833 11.6797 5 17.661 5 25.0086V25.2252C2.13333 25.9583 0 28.5741 0 31.673C0 35.3551 2.98333 38.3375 6.66667 38.3375H7.2V31.673C7.2 27.0746 10.9333 23.3425 15.5333 23.3425H33.8667C38.4667 23.3425 42.2 27.0746 42.2 31.673V38.3375H43.3333C47.0167 38.3375 50 35.3551 50 31.673C50 28.2408 47.3833 25.4084 44.05 25.0419Z" fill="#3EC964"/>
<path d="M31.8014 8.79707C32.5348 8.79707 33.2348 9.0803 33.7514 9.5968C34.2681 10.1133 34.5514 10.8131 34.5514 11.5461C34.5514 12.4625 35.2848 13.2123 36.2181 13.2123C37.1348 13.2123 37.8848 12.4792 37.8848 11.5461C37.8848 9.91336 37.2681 8.38054 36.1181 7.23092C34.9681 6.0813 33.4514 5.46484 31.8348 5.46484H31.8014C30.8848 5.46484 30.1348 6.21459 30.1348 7.13095C30.1348 8.04732 30.8848 8.79707 31.8014 8.79707Z" fill="#3EC964"/>
<path d="M32.8346 3.34888C32.8346 3.34888 32.868 3.34888 32.8846 3.34888C34.8013 3.34888 36.5846 4.08197 37.9346 5.43152C39.2846 6.78107 40.018 8.58047 40.018 10.5132C40.018 11.4295 40.7513 12.1793 41.6846 12.1793C42.6013 12.1793 43.3513 11.4462 43.3513 10.5132C43.3513 7.69743 42.2846 5.04832 40.2846 3.06564C38.2846 1.08297 35.6846 0 32.8846 0H32.8346C31.918 0 31.168 0.74975 31.168 1.66611C31.168 2.58247 31.918 3.33222 32.8346 3.33222V3.34888Z" fill="#3EC964"/>
<path d="M30.2996 13.5287C30.6328 13.8619 31.0493 14.0119 31.4825 14.0119C31.9157 14.0119 32.3322 13.8453 32.6654 13.5287C33.3152 12.8789 33.3152 11.8293 32.6654 11.1795L32.1823 10.6963C31.5325 10.0465 30.4828 10.0465 29.833 10.6963C29.1833 11.3461 29.1833 12.3958 29.833 13.0455L30.3162 13.5287H30.2996Z" fill="#3EC964"/>
</g>
<defs>
<clipPath id="clip0_2557_46168">
<rect width="50" height="50" fill="white"/>
</clipPath>
</defs>
</svg>
