<svg width="50" height="45" viewBox="0 0 50 45" fill="none" xmlns="http://www.w3.org/2000/svg">
<path d="M30.5197 0.183963C28.5386 -0.529241 27.6669 1.19434 25.6263 5.33488C25.3886 5.79054 25.131 6.34526 24.8537 6.88016C24.5565 6.30563 24.2593 5.73111 24.0414 5.27545C22.2386 1.68962 21.149 -0.469808 19.049 0.144341C10.9066 2.46225 7.77638 19.3216 8.44997 21.9367C9.79713 27.0876 17.7414 27.5433 25.0716 27.5829H25.864C32.9565 27.5829 40.3659 27.048 41.713 22.1744C42.3866 19.3414 39.6725 3.37357 30.5197 0.183963Z" fill="#3EC964"/>
<path d="M26.0419 27.484H24.9919C10.6486 27.484 1.99105 26.5528 0.148609 22.0953C0.0497466 21.8547 -0.000748167 21.5969 8.37693e-06 21.3367C0.000764921 21.0765 0.052758 20.8191 0.153019 20.579C0.253279 20.3389 0.399844 20.121 0.584344 19.9375C0.768845 19.7541 0.987669 19.6088 1.22832 19.5099C1.46897 19.4111 1.72674 19.3606 1.98691 19.3613C2.24708 19.3621 2.50455 19.4141 2.74462 19.5143C2.98469 19.6146 3.20267 19.7612 3.3861 19.9457C3.56953 20.1302 3.71482 20.349 3.81369 20.5896C4.34859 21.8972 8.46933 23.4821 24.9919 23.5217C41.5145 23.5613 45.6352 22.0557 46.1899 20.7481C46.294 20.5088 46.4442 20.2923 46.6319 20.111C46.8196 19.9297 47.0413 19.7871 47.2841 19.6914C47.5269 19.5958 47.7862 19.5489 48.0472 19.5534C48.3081 19.558 48.5656 19.6139 48.805 19.718C49.0443 19.822 49.2609 19.9722 49.4422 20.16C49.6235 20.3477 49.766 20.5693 49.8617 20.8121C49.9574 21.055 50.0042 21.3143 49.9997 21.5752C49.9952 21.8362 49.9392 22.0937 49.8352 22.333C47.9927 26.5925 39.7116 27.484 26.0419 27.484Z" fill="#3EC964"/>
<path d="M32.1841 28.8507C29.6604 28.7168 27.1548 29.345 24.9927 30.6535C22.8306 29.345 20.3249 28.7168 17.8012 28.8507C12.2342 28.8507 8.62859 30.8318 8.62859 34.1205C8.54269 36.6474 9.45831 39.106 11.1762 40.9611C12.8941 42.8163 15.2751 43.9179 17.8012 44.0261C19.2157 44.0081 20.6056 43.6538 21.8561 42.9924C23.1066 42.331 24.1817 41.3815 24.9927 40.2224C25.7993 41.3888 26.8725 42.346 28.1232 43.0144C29.374 43.6829 30.7662 44.0433 32.1841 44.0657C34.7102 43.9575 37.0913 42.8559 38.8091 41.0008C40.527 39.1456 41.4426 36.687 41.3567 34.1601C41.3567 30.9111 37.7511 28.8507 32.1841 28.8507Z" fill="#3EC964"/>
<path d="M26.972 34.1403C26.9537 33.4438 26.7632 32.7626 26.4175 32.1577C26.0718 31.5527 25.5817 31.0427 24.9909 30.6733C24.4001 31.0427 23.91 31.5527 23.5643 32.1577C23.2186 32.7626 23.0281 33.4438 23.0098 34.1403C23.0039 36.3333 23.6979 38.4709 24.9909 40.2422C26.2639 38.4757 26.9562 36.3572 26.972 34.1799V34.1403Z" fill="#3EC964"/>
</svg>
