<svg width="30" height="30" viewBox="0 0 30 30" fill="none" xmlns="http://www.w3.org/2000/svg">
<g clip-path="url(#clip0_762_158)">
<path d="M14.9321 11.1579C15.023 11.2503 15.0942 11.3603 15.1412 11.4812C15.1881 11.6021 15.21 11.7314 15.2053 11.8611L14.9681 17.3117C14.9445 17.7962 14.5901 18.1614 14.1439 18.1614C13.7025 18.1614 13.3416 17.7898 13.3218 17.314L13.0826 11.8608C13.078 11.7312 13.0999 11.602 13.147 11.4812C13.194 11.3603 13.2651 11.2504 13.356 11.1581C13.4576 11.0511 13.5797 10.9658 13.7152 10.9075C13.8507 10.8492 13.9965 10.8192 14.1439 10.8191C14.2914 10.819 14.4373 10.849 14.5727 10.9073C14.7082 10.9655 14.8305 11.0507 14.9321 11.1577V11.1579ZM21.2484 13.6208L22.3038 15.4518C21.2558 15.7481 20.2939 16.2916 19.4982 17.0366C18.7027 17.7817 18.0964 18.7067 17.7304 19.7345C17.3643 20.7623 17.2489 21.8629 17.3938 22.9445C17.5388 24.0261 17.9399 25.0572 18.5636 25.9517H4.7074C4.22388 25.952 3.7488 25.8247 3.32995 25.5826C2.9111 25.3405 2.56324 24.9921 2.32135 24.5725C2.07946 24.1528 1.95207 23.6768 1.952 23.1922C1.95193 22.7076 2.07917 22.2315 2.32093 21.8118L7.04098 13.6204L11.759 5.42749C12.0009 5.00794 12.3486 4.65956 12.7673 4.41735C13.1861 4.17513 13.661 4.04763 14.1445 4.04763C14.6279 4.04763 15.1028 4.17513 15.5216 4.41735C15.9403 4.65956 16.2881 5.00794 16.5299 5.42749L21.2484 13.6208ZM15.9567 21.456C15.9567 21.0966 15.8503 20.7453 15.6511 20.4465C15.4519 20.1477 15.1687 19.9148 14.8375 19.7773C14.5062 19.6397 14.1417 19.6038 13.79 19.6738C13.4382 19.744 13.1152 19.917 12.8617 20.1711C12.6081 20.4253 12.4355 20.749 12.3655 21.1015C12.2955 21.4539 12.3315 21.8193 12.4687 22.1513C12.6059 22.4833 12.8382 22.7671 13.1364 22.9668C13.4346 23.1664 13.7851 23.273 14.1437 23.273C14.6243 23.2724 15.0851 23.0808 15.425 22.7402C15.7649 22.3996 15.9561 21.9377 15.9567 21.456ZM15.6452 10.4736C15.4514 10.27 15.2184 10.108 14.9603 9.99732C14.7022 9.88664 14.4244 9.82963 14.1437 9.82963C13.8629 9.82969 13.5851 9.88682 13.327 9.99762C13.069 10.1084 12.836 10.2705 12.6423 10.474C12.4587 10.6626 12.3156 10.8867 12.2216 11.1326C12.1277 11.3786 12.0848 11.6412 12.0957 11.9044L12.3349 17.3564C12.3763 18.3628 13.1709 19.1511 14.1437 19.1511C15.1097 19.1511 15.905 18.3645 15.9543 17.3573L16.1916 11.904C16.2025 11.6408 16.1597 11.3782 16.0658 11.1322C15.9718 10.8863 15.8287 10.6621 15.6452 10.4736ZM14.1437 20.6286C13.9805 20.6286 13.8209 20.6771 13.6851 20.768C13.5493 20.859 13.4435 20.9882 13.381 21.1393C13.3185 21.2905 13.3022 21.4569 13.334 21.6173C13.3659 21.7778 13.4445 21.9253 13.5599 22.041C13.6754 22.1566 13.8224 22.2354 13.9826 22.2674C14.1427 22.2993 14.3087 22.2829 14.4595 22.2203C14.6104 22.1577 14.7393 22.0516 14.83 21.9156C14.9207 21.7795 14.9691 21.6196 14.9691 21.456C14.9689 21.2367 14.8819 21.0264 14.7271 20.8713C14.5724 20.7162 14.3626 20.6289 14.1437 20.6286ZM4.7074 26.9416C3.33435 26.9416 2.15287 26.2584 1.46587 25.067C0.779314 23.8742 0.779379 22.5075 1.46587 21.317L6.1858 13.1255L10.9039 4.93277C11.591 3.74112 12.772 3.05786 14.1437 3.05786C15.5147 3.05786 16.6961 3.74093 17.3849 4.93209L22.1038 13.1259L23.3259 15.2461C23.6024 15.2121 23.8808 15.1951 24.1595 15.195C24.2377 15.195 24.3154 15.1968 24.3929 15.1995L18.2044 4.45951C17.793 3.745 17.2011 3.15165 16.4883 2.73911C15.7755 2.32656 14.9669 2.10938 14.1438 2.10938C13.3206 2.10938 12.512 2.32656 11.7992 2.73911C11.0863 3.15165 10.4945 3.745 10.083 4.45951L0.64483 20.8419C-0.214974 22.3346 -0.214913 24.0478 0.64483 25.5423C1.05301 26.26 1.64447 26.8557 2.35846 27.2684C3.07245 27.6811 3.8832 27.8958 4.7074 27.8905H20.6259C20.1843 27.6214 19.7743 27.3032 19.4039 26.942L4.7074 26.9416ZM29.9998 22.0384C29.9996 23.1959 29.6569 24.3274 29.0152 25.2897C28.3734 26.2521 27.4614 27.0021 26.3943 27.445C25.3272 27.8878 24.1531 28.0037 23.0204 27.7778C21.8876 27.5519 20.8472 26.9945 20.0305 26.176C19.2139 25.3576 18.6577 24.3148 18.4324 23.1795C18.207 22.0443 18.3226 20.8675 18.7645 19.7981C19.2064 18.7287 19.9547 17.8146 20.915 17.1714C21.8752 16.5282 23.0041 16.1848 24.1591 16.1846C25.7077 16.1861 27.1925 16.8033 28.2876 17.9007C29.3827 18.9983 29.9985 20.4863 30 22.0384H29.9998ZM25.3269 22.0384L26.6031 20.7647C26.6803 20.6885 26.7418 20.5978 26.7838 20.4977C26.826 20.3976 26.8479 20.2902 26.8485 20.1816C26.849 20.073 26.8281 19.9654 26.787 19.8648C26.7459 19.7643 26.6854 19.673 26.6089 19.596C26.5325 19.519 26.4417 19.4579 26.3416 19.4163C26.2415 19.3746 26.1342 19.3531 26.0258 19.3532C25.9175 19.3532 25.8102 19.3747 25.7101 19.4164C25.6101 19.4581 25.5192 19.5192 25.4428 19.5962L24.1591 20.8754L22.8753 19.5964C22.72 19.4457 22.5118 19.3622 22.2956 19.3642C22.0794 19.3662 21.8727 19.4534 21.7202 19.607C21.5677 19.7606 21.4816 19.9682 21.4806 20.1848C21.4797 20.4015 21.5638 20.6098 21.715 20.7647L22.9931 22.0382L21.715 23.3118C21.5625 23.4665 21.4771 23.6753 21.4775 23.8927C21.4779 24.1101 21.564 24.3186 21.717 24.4727C21.8701 24.6268 22.0776 24.7141 22.2946 24.7156C22.5115 24.7171 22.7203 24.6325 22.8753 24.4805L24.1591 23.2014L25.4428 24.4805C25.5979 24.6325 25.8066 24.7171 26.0235 24.7156C26.2405 24.7141 26.4481 24.6268 26.6011 24.4727C26.7541 24.3186 26.8402 24.1101 26.8406 23.8927C26.841 23.6753 26.7556 23.4665 26.6031 23.3118L25.3269 22.0384Z" fill="#1B2841"/>
</g>
<defs>
<clipPath id="clip0_762_158">
<rect width="30" height="30" fill="white"/>
</clipPath>
</defs>
</svg>
