<svg width="229" height="50" viewBox="0 0 229 50" fill="none" xmlns="http://www.w3.org/2000/svg">
<g clip-path="url(#clip0_1229_2)">
<path d="M28.484 0.198938C27.8047 0.132625 27.116 0.0852579 26.4178 0.0568359C25.7007 0.0189453 24.9742 0 24.2383 0C10.8596 0 0.915188 5.86395 0.490616 6.11024L3.95255e-07 6.40397V6.98183C3.95255e-07 7.31339 -0.00943449 15.252 2.88708 24.5358C3.09466 25.2179 3.32109 25.8905 3.55696 26.5536C3.82114 27.2925 4.09475 28.022 4.37781 28.742C4.83068 28.1925 5.33073 27.6147 5.86852 27.0178C5.59491 26.3073 5.34017 25.5874 5.1043 24.839C5.00994 24.5547 4.9156 24.2706 4.82124 23.9769C2.46251 16.3983 2.08512 9.56798 2.0285 7.56919C4.18911 6.40397 13.0863 2.01781 24.2383 2.01781C25.0875 2.01781 25.9177 2.03675 26.7291 2.0936C27.4273 2.13149 28.1161 2.18833 28.7859 2.25465C28.6728 1.39257 28.5595 0.691548 28.484 0.198938ZM48.4766 6.98183V6.40397L47.986 6.11024C47.6652 5.92079 41.7589 2.43464 33.0034 0.814705C32.324 0.691548 31.6165 0.577868 30.8993 0.473665C30.9843 1.04206 31.0881 1.75256 31.2013 2.57673C31.9183 2.69041 32.6165 2.81357 33.2864 2.95567C39.9946 4.31032 44.9008 6.74495 46.4387 7.56919C46.3821 9.55857 46.0141 16.3414 43.6554 23.9295C42.844 26.5157 41.9005 28.922 40.8249 31.1482C40.4758 31.8681 40.1172 32.5597 39.7399 33.2323C40.5324 33.2134 41.3155 33.147 42.0986 33.0713C42.4666 32.3607 42.8251 31.6408 43.1648 30.9019C44.08 28.903 44.8914 26.781 45.5895 24.5453C48.4861 15.252 48.4861 7.31339 48.4766 6.98183ZM36.9283 37.6184C33.5223 42.1846 29.286 45.5949 24.2478 47.8022C17.1527 44.695 11.6427 39.2194 7.81212 31.4703C7.48189 30.8071 7.17054 30.1346 6.86863 29.443C6.3497 30.0303 5.87796 30.6082 5.43451 31.1671C5.7553 31.8586 6.09496 32.5313 6.43462 33.185C10.5672 41.0383 16.4734 46.7223 23.8421 49.839L24.2289 50L24.6251 49.839C30.5125 47.3475 35.4753 43.2077 39.3342 37.6374C39.8059 36.9648 40.2494 36.2732 40.6834 35.5533C39.8719 35.6006 39.0794 35.6196 38.3058 35.6101C37.8718 36.3111 37.4095 36.9743 36.9283 37.6184Z" fill="#3EC964"/>
<path d="M24.8687 40.0725C24.6611 40.1767 24.4535 40.2808 24.2365 40.3756C23.5572 40.0725 22.9156 39.7409 22.2929 39.3714C17.1697 36.4063 14.0562 31.6318 12.1598 26.9425C11.8862 26.2604 11.6315 25.5783 11.405 24.9058C10.8389 25.3889 10.2822 25.8909 9.75391 26.4025C10.0087 27.1035 10.2728 27.7856 10.5653 28.4488C13.0278 34.1706 16.7075 38.5093 21.3871 41.1903C22.1796 41.645 22.9911 42.0524 23.8402 42.4123L24.227 42.5735L24.6234 42.4123C25.0384 42.2324 25.4536 42.0429 25.8593 41.844C25.0479 41.6829 24.6894 40.8114 24.8687 40.0725Z" fill="#3EC964"/>
<path d="M29.4263 7.84385C28.7659 7.73966 28.0771 7.6449 27.379 7.58805C26.3694 7.48387 25.3127 7.43652 24.2371 7.43652C18.1138 7.43652 13.0096 9.20803 10.1602 10.4679C8.67894 11.1216 7.80149 11.6427 7.6977 11.6995L7.32031 11.9268C8.0751 12.1448 8.81099 12.5521 9.22614 13.2341C9.23558 13.2436 9.23558 13.2625 9.24503 13.272C9.24503 13.2341 9.24503 13.1963 9.24503 13.1584C9.64128 12.95 10.264 12.6373 11.066 12.2868C13.7644 11.1121 18.5762 9.45432 24.2371 9.45432C25.3787 9.45432 26.4921 9.52059 27.5488 9.63427C28.2564 9.71954 28.9357 9.81431 29.5962 9.928C29.549 9.21744 29.4924 8.5259 29.4263 7.84385Z" fill="#3EC964"/>
<path d="M39.6459 13.3958C39.5043 13.339 39.3722 13.2821 39.2402 13.2253C39.2213 13.68 39.1835 14.3432 39.1081 15.1862C38.7684 18.7103 37.7117 25.2091 34.3623 30.9688C33.9944 31.6035 33.5981 32.2382 33.1641 32.8539C33.9283 32.9676 34.6737 33.0529 35.4284 33.1287C35.8341 32.5034 36.221 31.8592 36.5889 31.1867C37.6456 29.2447 38.5514 27.1037 39.2684 24.7732C40.4384 21.0123 40.929 17.5735 41.1365 15.3189C41.2781 13.6895 41.2781 12.6663 41.2781 12.5717V12.5527C41.08 13.2064 40.4762 13.7179 39.6459 13.3958Z" fill="#3EC964"/>
<path d="M12.1607 26.9425C11.6135 27.4351 11.0756 27.9467 10.5662 28.4488C9.54721 29.4719 8.6132 30.495 7.80176 31.4708C7.29228 32.0675 6.8394 32.6454 6.4337 33.1854C6.08461 32.5223 5.75438 31.8591 5.43359 31.1675C5.8676 30.6181 6.34878 30.0402 6.86771 29.4435C7.73572 28.4393 8.70748 27.4067 9.76419 26.4025C10.2926 25.8909 10.8398 25.3889 11.4153 24.9058C11.6417 25.5783 11.887 26.2604 12.1607 26.9425Z" fill="#3EC964"/>
<path d="M15.8695 19.0317C15.4072 19.2685 14.945 19.5148 14.5015 19.7801C13.1523 20.5664 11.8691 21.4759 10.6804 22.4421C10.0859 22.9252 9.51039 23.4178 8.96319 23.9105C7.84042 24.9336 6.80259 25.9946 5.87796 27.0083C5.34017 27.5956 4.84012 28.1735 4.38725 28.7324C4.1042 28.0219 3.82115 27.2925 3.56641 26.5441C4.04759 25.9851 4.56651 25.4167 5.11374 24.8294C6.09496 23.7873 7.18942 22.7263 8.38766 21.7032C8.95375 21.2106 9.54817 20.7275 10.1614 20.2632C11.6521 19.1264 13.256 18.0844 14.9732 17.2129L14.9827 17.2223L15.8695 19.0317Z" fill="#3EC964"/>
<path d="M29.5982 9.92804C28.9376 9.81435 28.2582 9.71958 27.5504 9.63432C27.5032 8.93327 27.4372 8.24172 27.3805 7.57859C27.1729 5.41868 26.9276 3.49565 26.7294 2.09359C26.5878 1.1368 26.4746 0.416825 26.418 0.0473633C27.1163 0.0757853 27.8052 0.123153 28.4847 0.189465C28.5602 0.682075 28.6734 1.39257 28.7866 2.26412C28.9943 3.74195 29.2397 5.69349 29.4283 7.84389C29.4945 8.52594 29.5511 9.21749 29.5982 9.92804Z" fill="#3EC964"/>
<path d="M34.0599 18.1319V18.1603C34.0599 18.1698 34.0599 18.1887 34.0599 18.1982L32.0497 18.0655C32.0875 17.5634 32.1063 17.0519 32.1158 16.5403C32.1725 14.5604 32.1158 12.4668 31.9837 10.4396C31.9366 9.71959 31.8893 8.99962 31.8233 8.30807C31.644 6.14816 31.4081 4.15878 31.2005 2.5767C31.0872 1.75253 30.9834 1.04203 30.8984 0.473633C31.6156 0.568367 32.314 0.682048 33.0028 0.814673C33.0878 1.43043 33.1916 2.14093 33.2954 2.95564C33.5125 4.63237 33.7389 6.66918 33.9088 8.85751C33.956 9.56798 34.0126 10.2974 34.0504 11.0268C34.1825 13.4047 34.2108 15.8583 34.0599 18.1319Z" fill="#3EC964"/>
<path d="M43.1647 30.9019C42.8251 31.6407 42.4759 32.3607 42.0986 33.0713C41.3249 33.1565 40.5418 33.2133 39.7398 33.2323C39.3436 33.2512 38.9379 33.2512 38.5416 33.2512C37.5132 33.2512 36.4659 33.2039 35.4187 33.1091C34.6638 33.0428 33.909 32.9576 33.1543 32.8344C33.5882 32.2186 33.9846 31.5934 34.3525 30.9492C35.0979 31.044 35.8432 31.1102 36.5792 31.1577C38.0227 31.2429 39.438 31.2334 40.8249 31.1292C41.3438 31.0913 41.8533 31.044 42.3628 30.9776L43.1647 30.9019Z" fill="#3EC964"/>
<path d="M40.6929 35.5624C40.259 36.2824 39.8155 36.9739 39.3437 37.6465C39.0701 37.656 38.7965 37.656 38.5323 37.656C37.9851 37.656 37.4568 37.6465 36.9284 37.618C35.2584 37.5518 33.6922 37.3812 32.2487 37.1539C31.3901 37.0213 30.5787 36.8696 29.8145 36.6991C27.3425 36.1687 25.3895 35.5434 24.2384 35.1456C24.1063 35.0981 24.0215 35.0413 23.9082 35.0035L24.5687 33.0898C25.0875 33.2698 25.8329 33.5351 26.7859 33.8193C28.0407 34.1982 29.6352 34.6245 31.5033 34.9655C32.2392 35.1076 33.0318 35.2213 33.8432 35.3255C35.2395 35.4961 36.7303 35.6097 38.3153 35.6192C39.089 35.6287 39.8815 35.6097 40.6929 35.5624Z" fill="#3EC964"/>
<path d="M24.2377 44.3444C25.8165 44.3444 27.0965 43.0592 27.0965 41.474C27.0965 39.8887 25.8165 38.6035 24.2377 38.6035C22.6588 38.6035 21.3789 39.8887 21.3789 41.474C21.3789 43.0592 22.6588 44.3444 24.2377 44.3444Z" fill="#FFA41C"/>
<path d="M40.2689 15.4322C41.8478 15.4322 43.1277 14.1472 43.1277 12.5619C43.1277 10.9766 41.8478 9.69141 40.2689 9.69141C38.6901 9.69141 37.4102 10.9766 37.4102 12.5619C37.4102 14.1472 38.6901 15.4322 40.2689 15.4322Z" fill="#FFA41C"/>
<path d="M8.21816 15.4322C9.79698 15.4322 11.0769 14.1472 11.0769 12.5619C11.0769 10.9766 9.79698 9.69141 8.21816 9.69141C6.63929 9.69141 5.35938 10.9766 5.35938 12.5619C5.35938 14.1472 6.63929 15.4322 8.21816 15.4322Z" fill="#FFA41C"/>
<path d="M34.0596 17.5637L33.569 17.27C33.5123 17.2321 32.9934 16.9289 32.1159 16.55C30.4931 15.8395 27.6438 14.8638 24.2378 14.8638C19.2938 14.8638 15.5199 16.9195 14.9727 17.2321C14.935 17.2511 14.9161 17.2606 14.9066 17.27L14.416 17.5637V18.1321C14.416 18.2362 14.416 18.852 14.5009 19.7805C14.8217 23.3803 16.3879 31.821 23.851 34.9756L23.9076 34.9945L24.2378 35.1366L24.2755 35.1271L24.6341 34.9756C25.4171 34.644 26.1342 34.2556 26.7947 33.8198C33.918 29.1021 34.0689 18.9373 34.0689 18.1605V18.1321L34.0596 17.5637ZM33.0595 18.1416C33.0595 18.5868 32.984 28.5148 26.238 32.9767C25.6247 33.3935 24.9548 33.7535 24.2472 34.0472L24.2189 34.0377C17.2559 31.0915 15.8124 23.0203 15.5105 19.6952C15.435 18.8994 15.4256 18.3499 15.4256 18.1416L15.5011 18.1036C15.8784 17.8858 19.4826 15.8774 24.2472 15.8774C27.3985 15.8774 30.0497 16.749 31.7197 17.4784C32.4934 17.81 32.9556 18.0847 33.0595 18.1416Z" fill="#FFA41C"/>
<path d="M24.2396 15.877C19.475 15.877 15.8709 17.8853 15.4934 18.1032L15.418 18.1411C15.418 18.3495 15.4274 18.8989 15.5029 19.6947C15.8048 23.0293 17.2484 31.0911 24.2113 34.0372L24.2396 34.0467C24.9472 33.7531 25.6171 33.3931 26.2304 32.9763C32.9764 28.5144 33.0518 18.5863 33.0518 18.1411C32.9575 18.0843 32.4858 17.819 31.712 17.4779C30.0516 16.7485 27.4003 15.877 24.2396 15.877ZM25.0133 24.7724V26.2218C25.0133 26.6481 24.6737 26.9891 24.2491 26.9891C23.8245 26.9891 23.4848 26.6481 23.4848 26.2218V24.7724C22.7961 24.4693 22.3149 23.7872 22.3149 22.9914C22.3149 21.9209 23.1829 21.0494 24.2491 21.0494C25.3152 21.0494 26.1832 21.9209 26.1832 22.9914C26.1738 23.7872 25.6926 24.4788 25.0133 24.7724Z" fill="#3EC964"/>
<path d="M24.2396 15.877C19.475 15.877 15.8709 17.8853 15.4934 18.1032L15.418 18.1411C15.418 18.3495 15.4274 18.8989 15.5029 19.6947C15.8048 23.0293 17.2484 31.0911 24.2113 34.0372L24.2396 34.0467C24.9472 33.7531 25.6171 33.3931 26.2304 32.9763C32.9764 28.5144 33.0518 18.5863 33.0518 18.1411C32.9575 18.0843 32.4858 17.819 31.712 17.4779C30.0516 16.7485 27.4003 15.877 24.2396 15.877ZM25.0133 24.7724V26.2218C25.0133 26.6481 24.6737 26.9891 24.2491 26.9891C23.8245 26.9891 23.4848 26.6481 23.4848 26.2218V24.7724C22.7961 24.4693 22.3149 23.7872 22.3149 22.9914C22.3149 21.9209 23.1829 21.0494 24.2491 21.0494C25.3152 21.0494 26.1832 21.9209 26.1832 22.9914C26.1738 23.7872 25.6926 24.4788 25.0133 24.7724Z" fill="#025FCA"/>
<path d="M66.5079 43.0466L66.6116 43.4091H66.9886H74.1818H74.5572L74.662 43.0486L80.9493 21.4066L87.2529 43.0489L87.3578 43.4091H87.733H94.9261H95.3031L95.4068 43.0466L105.395 8.13755L105.578 7.5H104.915H96.8523H96.4572L96.3658 7.88436L90.9046 30.8569L84.8928 7.87347L84.7951 7.5H84.4091H77.5057H77.1201L77.0221 7.8729L71.0025 30.7764L65.5489 7.88413L65.4574 7.5H65.0625H57H56.3369L56.5193 8.13755L66.5079 43.0466ZM108.365 42.9091V43.4091H108.865H132.456H132.956V42.9091V36.8239V36.3239H132.456H116.746V28.9886H131.178H131.678V28.4886V22.4034V21.9034H131.178H116.746V14.5852H132.388H132.888V14.0852V8V7.5H132.388H108.865H108.365V8V42.9091ZM137.756 42.9091V43.4091H138.256H161.847H162.347V42.9091V36.8239V36.3239H161.847H146.136V28.9886H160.568H161.068V28.4886V22.4034V21.9034H160.568H146.136V14.5852H161.778H162.278V14.0852V8V7.5H161.778H138.256H137.756V8V42.9091ZM167.146 42.9091V43.4091H167.646H175.027H175.527V42.9091V32.0909H181.232C183.973 32.0909 186.341 31.5857 188.315 30.5514C190.294 29.5204 191.816 28.0731 192.866 26.2116C193.914 24.354 194.43 22.2217 194.43 19.8295C194.43 17.4395 193.92 15.3088 192.886 13.4521C191.86 11.5803 190.368 10.1206 188.423 9.07689C186.471 8.01757 184.129 7.5 181.419 7.5H167.646H167.146V8V42.9091ZM180.038 25.1761H175.527V14.5341H180.004C181.383 14.5341 182.478 14.7699 183.317 15.2099L183.322 15.2121C184.167 15.6451 184.782 16.249 185.186 17.026L185.189 17.0328C185.609 17.8114 185.828 18.7383 185.828 19.8295C185.828 20.9082 185.61 21.8433 185.187 22.648L185.186 22.6502C184.781 23.4292 184.163 24.0463 183.314 24.5024C182.487 24.9408 181.405 25.1761 180.038 25.1761ZM228.423 8V7.5H227.923H220.577H220.077V8V28.7895L205.614 7.71706L205.465 7.5H205.202H198.724H198.224V8V42.9091V43.4091H198.724H206.105H206.605V42.9091V22.1703L221.137 43.1934L221.286 43.4091H221.548H227.923H228.423V42.9091V8Z" fill="white" stroke="white"/>
</g>
<defs>
<clipPath id="clip0_1229_2">
<rect width="229" height="50" fill="white"/>
</clipPath>
</defs>
</svg>
